<svg id="Capa_1" data-name="Capa 1" xmlns="http://www.w3.org/2000/svg" xmlns:xlink="http://www.w3.org/1999/xlink" viewBox="0 0 48.46 43.64"><defs><style>.cls-1{fill:none;}.cls-2{clip-path:url(#clip-path);}.cls-3{fill:#fff;fill-rule:evenodd;}</style><clipPath id="clip-path" transform="translate(0 0)"><rect class="cls-1" width="48.46" height="43.63"/></clipPath></defs><g class="cls-2"><path class="cls-3" d="M24.62,22.07C24.39,10,24.8.14,25.54,0s1.52,9.52,1.75,21.56-.18,21.93-.92,22.07-1.52-9.51-1.75-21.56" transform="translate(0 0)"/><path class="cls-3" d="M31.63,29.87c3.13-2.73,6.09-4.52,6.62-4s-1.59,3.19-4.71,5.92-6.09,4.51-6.62,4,1.58-3.18,4.71-5.91" transform="translate(0 0)"/><path class="cls-3" d="M12.76,26.1C6,23.65.68,20.92,1,20s6,.32,12.8,2.77S25.83,28,25.56,28.87s-6-.32-12.8-2.77" transform="translate(0 0)"/><path class="cls-3" d="M0,7.86c0-.7,10.89-.88,24.27-.42S48.49,8.86,48.46,9.56s-10.89.88-24.27.41S0,8.56,0,7.86" transform="translate(0 0)"/></g></svg>