<svg id="Capa_1" data-name="Capa 1" xmlns="http://www.w3.org/2000/svg" xmlns:xlink="http://www.w3.org/1999/xlink" viewBox="0 0 912.39 398.78"><defs><style>.cls-1,.cls-10,.cls-12,.cls-14,.cls-4,.cls-6,.cls-8{fill:none;}.cls-2{clip-path:url(#clip-path);}.cls-3{fill:#00a651;}.cls-11,.cls-3,.cls-5,.cls-7,.cls-9{fill-rule:evenodd;}.cls-4{stroke:#00a651;}.cls-10,.cls-12,.cls-14,.cls-4,.cls-6,.cls-8{stroke-miterlimit:3.86;}.cls-10,.cls-12,.cls-4,.cls-6,.cls-8{stroke-width:0.55px;}.cls-5{fill:#58b947;}.cls-6{stroke:#58b947;}.cls-7{fill:#00aab1;}.cls-8{stroke:#00aab1;}.cls-9{fill:#afd2dd;}.cls-10{stroke:#afd2dd;}.cls-11,.cls-13{fill:#231f20;}.cls-12,.cls-14{stroke:#231f20;}.cls-14{stroke-width:2.19px;}</style><clipPath id="clip-path" transform="translate(0 0)"><rect class="cls-1" width="912.39" height="398.78"/></clipPath></defs><g class="cls-2"><path class="cls-3" d="M235.06,363.24a15.77,15.77,0,0,1,11.39,4.25,14.08,14.08,0,0,1,4.43,10.59,19.59,19.59,0,0,1-5.12,13.75q-5.13,5.58-13.6,5.59a15.2,15.2,0,0,1-15.64-15.31,20.42,20.42,0,0,1,2.12-8.74,17.58,17.58,0,0,1,16.42-10.13m-.13,32.43a14.37,14.37,0,0,0,12-6.89,12.89,12.89,0,0,0,1.91-6.63,15.74,15.74,0,0,0-2.57-8.76,18.36,18.36,0,0,0-6.67-6.17A16,16,0,0,0,232,365a12.82,12.82,0,0,0-8.93,3.72,12.07,12.07,0,0,0-4,9.23,17.79,17.79,0,0,0,4.9,12.39q4.89,5.34,11,5.34" transform="translate(0 0)"/><path class="cls-4" d="M235.06,363.24a15.77,15.77,0,0,1,11.39,4.25,14.08,14.08,0,0,1,4.43,10.59,19.59,19.59,0,0,1-5.12,13.75q-5.13,5.58-13.6,5.59a15.2,15.2,0,0,1-15.64-15.31,20.42,20.42,0,0,1,2.12-8.74,17.58,17.58,0,0,1,16.42-10.13Zm-.13,32.43a14.37,14.37,0,0,0,12-6.89,12.89,12.89,0,0,0,1.91-6.63,15.74,15.74,0,0,0-2.57-8.76,18.36,18.36,0,0,0-6.67-6.17A16,16,0,0,0,232,365a12.82,12.82,0,0,0-8.93,3.72,12.07,12.07,0,0,0-4,9.23,17.79,17.79,0,0,0,4.9,12.39Q228.84,395.67,234.93,395.67Z" transform="translate(0 0)"/><path class="cls-3" d="M284.3,363.79h6.35v.33a2.86,2.86,0,0,0-2,.61,3.68,3.68,0,0,0-.55,2.42v30.13l-26.45-28.1v24.47a6.05,6.05,0,0,0,.18,1.72,1.34,1.34,0,0,0,.51.77,5.72,5.72,0,0,0,1.66.4v.32h-6.3v-.32c1.13,0,1.84-.2,2.11-.6a6.15,6.15,0,0,0,.42-2.9V370.65a11.93,11.93,0,0,0-.82-4.8c-.55-1.25-1.81-1.82-3.78-1.73v-.33h6.2l24.84,26.4V366.83c0-1.25-.22-2-.67-2.3a3.18,3.18,0,0,0-1.72-.41Z" transform="translate(0 0)"/><path class="cls-4" d="M284.3,363.79h6.35v.33a2.86,2.86,0,0,0-2,.61,3.68,3.68,0,0,0-.55,2.42v30.13l-26.45-28.1v24.47a6.05,6.05,0,0,0,.18,1.72,1.34,1.34,0,0,0,.51.77,5.72,5.72,0,0,0,1.66.4v.32h-6.3v-.32c1.13,0,1.84-.2,2.11-.6a6.15,6.15,0,0,0,.42-2.9V370.65a11.93,11.93,0,0,0-.82-4.8c-.55-1.25-1.81-1.82-3.78-1.73v-.33h6.2l24.84,26.4V366.83c0-1.25-.22-2-.67-2.3a3.18,3.18,0,0,0-1.72-.41Z" transform="translate(0 0)"/><path class="cls-3" d="M296.87,364.12v-.33H312a36.62,36.62,0,0,1,9.14.91,16.17,16.17,0,0,1,5.85,2.87,13.87,13.87,0,0,1,4,5,15.54,15.54,0,0,1,1.45,6.79,17.72,17.72,0,0,1-1.51,7.11,18.43,18.43,0,0,1-4.12,6,14.07,14.07,0,0,1-5.48,3.46,31.33,31.33,0,0,1-8.92.93H296.87v-.32h.4a1.5,1.5,0,0,0,1.57-1,11.18,11.18,0,0,0,.38-3.53v-24.1c0-1.79-.15-2.88-.46-3.25a2.37,2.37,0,0,0-1.89-.56m11.24.36H303v25.63a6.38,6.38,0,0,0,.82,3.6,4.72,4.72,0,0,0,2.8,1.71,21.56,21.56,0,0,0,5.32.52q9.3,0,13.06-4.76a16.41,16.41,0,0,0,3.76-10.39,15.24,15.24,0,0,0-5.15-11.46q-5.16-4.84-15.53-4.85" transform="translate(0 0)"/><path class="cls-4" d="M296.87,364.12v-.33H312a36.62,36.62,0,0,1,9.14.91,16.17,16.17,0,0,1,5.85,2.87,13.87,13.87,0,0,1,4,5,15.54,15.54,0,0,1,1.45,6.79,17.72,17.72,0,0,1-1.51,7.11,18.43,18.43,0,0,1-4.12,6,14.07,14.07,0,0,1-5.48,3.46,31.33,31.33,0,0,1-8.92.93H296.87v-.32h.4a1.5,1.5,0,0,0,1.57-1,11.18,11.18,0,0,0,.38-3.53v-24.1c0-1.79-.15-2.88-.46-3.25A2.37,2.37,0,0,0,296.87,364.12Zm11.24.36H303v25.63a6.38,6.38,0,0,0,.82,3.6,4.72,4.72,0,0,0,2.8,1.71,21.56,21.56,0,0,0,5.32.52q9.3,0,13.06-4.76a16.41,16.41,0,0,0,3.76-10.39,15.24,15.24,0,0,0-5.15-11.46Q318.48,364.49,308.11,364.48Z" transform="translate(0 0)"/><path class="cls-3" d="M357,363.24a15.78,15.78,0,0,1,11.39,4.25,14.08,14.08,0,0,1,4.43,10.59,19.59,19.59,0,0,1-5.12,13.75q-5.13,5.58-13.6,5.59a15.19,15.19,0,0,1-15.64-15.31,20.54,20.54,0,0,1,2.11-8.74A17.61,17.61,0,0,1,357,363.24m-.13,32.43a14.37,14.37,0,0,0,12-6.89,12.89,12.89,0,0,0,1.91-6.63,15.74,15.74,0,0,0-2.57-8.76,18.36,18.36,0,0,0-6.67-6.17A16,16,0,0,0,353.9,365a12.82,12.82,0,0,0-8.93,3.72,12.07,12.07,0,0,0-4,9.23,17.75,17.75,0,0,0,4.9,12.39q4.89,5.34,11,5.34" transform="translate(0 0)"/><path class="cls-4" d="M357,363.24a15.78,15.78,0,0,1,11.39,4.25,14.08,14.08,0,0,1,4.43,10.59,19.59,19.59,0,0,1-5.12,13.75q-5.13,5.58-13.6,5.59a15.19,15.19,0,0,1-15.64-15.31,20.54,20.54,0,0,1,2.11-8.74A17.61,17.61,0,0,1,357,363.24Zm-.13,32.43a14.37,14.37,0,0,0,12-6.89,12.89,12.89,0,0,0,1.91-6.63,15.74,15.74,0,0,0-2.57-8.76,18.36,18.36,0,0,0-6.67-6.17A16,16,0,0,0,353.9,365a12.82,12.82,0,0,0-8.93,3.72,12.07,12.07,0,0,0-4,9.23,17.75,17.75,0,0,0,4.9,12.39Q350.75,395.67,356.84,395.67Z" transform="translate(0 0)"/><path class="cls-3" d="M409.33,363.79h5.16v.33a2.46,2.46,0,0,0-2.63,2.77,12.21,12.21,0,0,0,.13,1.56l3.47,25a6.51,6.51,0,0,0,.71,2.41,2.22,2.22,0,0,0,1.63.64v.32h-7.45v-.32a1.27,1.27,0,0,0,1.48-1.43,12.25,12.25,0,0,0-.14-1.32l-3.36-24.29-11.86,27.36h-.23l-11.93-27.32L381,394a8,8,0,0,0-.09,1.27c0,.87.51,1.3,1.52,1.3v.32h-5.06v-.32a2.4,2.4,0,0,0,1.47-.29,1.84,1.84,0,0,0,.51-.9,8.44,8.44,0,0,0,.27-1.38l3.76-26.72a5.16,5.16,0,0,0-1.84-2.68,4.08,4.08,0,0,0-1.78-.45v-.33H386l11.65,27Z" transform="translate(0 0)"/><path class="cls-4" d="M409.33,363.79h5.16v.33a2.46,2.46,0,0,0-2.63,2.77,12.21,12.21,0,0,0,.13,1.56l3.47,25a6.51,6.51,0,0,0,.71,2.41,2.22,2.22,0,0,0,1.63.64v.32h-7.45v-.32a1.27,1.27,0,0,0,1.48-1.43,12.25,12.25,0,0,0-.14-1.32l-3.36-24.29-11.86,27.36h-.23l-11.93-27.32L381,394a8,8,0,0,0-.09,1.27c0,.87.51,1.3,1.52,1.3v.32h-5.06v-.32a2.4,2.4,0,0,0,1.47-.29,1.84,1.84,0,0,0,.51-.9,8.44,8.44,0,0,0,.27-1.38l3.76-26.72a5.16,5.16,0,0,0-1.84-2.68,4.08,4.08,0,0,0-1.78-.45v-.33H386l11.65,27Z" transform="translate(0 0)"/><path class="cls-3" d="M433.4,363.79v.33a3.34,3.34,0,0,0-1.45.2,1.3,1.3,0,0,0-.94.78,12.88,12.88,0,0,0-.14,2.45V393a10,10,0,0,0,.17,2.52,1.46,1.46,0,0,0,.65.77,3.46,3.46,0,0,0,1.71.3v.32h-8.83v-.32c1.11,0,1.8-.21,2.07-.64a6.33,6.33,0,0,0,.41-2.91V367.84a6.76,6.76,0,0,0-.45-3.08c-.3-.49-1-.7-2-.64v-.33Z" transform="translate(0 0)"/><path class="cls-4" d="M433.4,363.79v.33a3.34,3.34,0,0,0-1.45.2,1.3,1.3,0,0,0-.94.78,12.88,12.88,0,0,0-.14,2.45V393a10,10,0,0,0,.17,2.52,1.46,1.46,0,0,0,.65.77,3.46,3.46,0,0,0,1.71.3v.32h-8.83v-.32c1.11,0,1.8-.21,2.07-.64a6.33,6.33,0,0,0,.41-2.91V367.84a6.76,6.76,0,0,0-.45-3.08c-.3-.49-1-.7-2-.64v-.33Z" transform="translate(0 0)"/><path class="cls-3" d="M469.08,363.79h6.35v.33a2.82,2.82,0,0,0-2,.61,3.68,3.68,0,0,0-.55,2.42v30.13l-26.45-28.1v24.47a6.05,6.05,0,0,0,.18,1.72,1.34,1.34,0,0,0,.51.77,5.72,5.72,0,0,0,1.66.4v.32h-6.31v-.32c1.14,0,1.84-.2,2.12-.6A6.19,6.19,0,0,0,445,393V370.65a12.12,12.12,0,0,0-.81-4.8c-.55-1.25-1.81-1.82-3.78-1.73v-.33h6.2l24.84,26.4V366.83c0-1.25-.22-2-.67-2.3a3.2,3.2,0,0,0-1.72-.41Z" transform="translate(0 0)"/><path class="cls-4" d="M469.08,363.79h6.35v.33a2.82,2.82,0,0,0-2,.61,3.68,3.68,0,0,0-.55,2.42v30.13l-26.45-28.1v24.47a6.05,6.05,0,0,0,.18,1.72,1.34,1.34,0,0,0,.51.77,5.72,5.72,0,0,0,1.66.4v.32h-6.31v-.32c1.14,0,1.84-.2,2.12-.6A6.19,6.19,0,0,0,445,393V370.65a12.12,12.12,0,0,0-.81-4.8c-.55-1.25-1.81-1.82-3.78-1.73v-.33h6.2l24.84,26.4V366.83c0-1.25-.22-2-.67-2.3a3.2,3.2,0,0,0-1.72-.41Z" transform="translate(0 0)"/><path class="cls-3" d="M492.48,363.79v.33a3.32,3.32,0,0,0-1.44.2,1.3,1.3,0,0,0-.94.78,11.77,11.77,0,0,0-.15,2.45V393a10.52,10.52,0,0,0,.17,2.52,1.5,1.5,0,0,0,.65.77,3.46,3.46,0,0,0,1.71.3v.32h-8.83v-.32c1.12,0,1.81-.21,2.08-.64a6.47,6.47,0,0,0,.41-2.91V367.84a6.76,6.76,0,0,0-.45-3.08c-.31-.49-1-.7-2-.64v-.33Z" transform="translate(0 0)"/><path class="cls-4" d="M492.48,363.79v.33a3.32,3.32,0,0,0-1.44.2,1.3,1.3,0,0,0-.94.78,11.77,11.77,0,0,0-.15,2.45V393a10.52,10.52,0,0,0,.17,2.52,1.5,1.5,0,0,0,.65.77,3.46,3.46,0,0,0,1.71.3v.32h-8.83v-.32c1.12,0,1.81-.21,2.08-.64a6.47,6.47,0,0,0,.41-2.91V367.84a6.76,6.76,0,0,0-.45-3.08c-.31-.49-1-.7-2-.64v-.33Z" transform="translate(0 0)"/><path class="cls-3" d="M519.25,363.24a15.78,15.78,0,0,1,11.39,4.25,14.08,14.08,0,0,1,4.43,10.59,19.55,19.55,0,0,1-5.13,13.75q-5.12,5.58-13.59,5.59a15.19,15.19,0,0,1-15.64-15.31,20.4,20.4,0,0,1,2.11-8.74,17.61,17.61,0,0,1,16.43-10.13m-.13,32.43a14.4,14.4,0,0,0,12-6.89,12.89,12.89,0,0,0,1.91-6.63,15.67,15.67,0,0,0-2.58-8.76,18.2,18.2,0,0,0-6.67-6.17,16,16,0,0,0-7.58-2.23,12.82,12.82,0,0,0-8.92,3.72,12,12,0,0,0-4,9.23,17.78,17.78,0,0,0,4.89,12.39q4.9,5.34,11,5.34" transform="translate(0 0)"/><path class="cls-4" d="M519.25,363.24a15.78,15.78,0,0,1,11.39,4.25,14.08,14.08,0,0,1,4.43,10.59,19.55,19.55,0,0,1-5.13,13.75q-5.12,5.58-13.59,5.59a15.19,15.19,0,0,1-15.64-15.31,20.4,20.4,0,0,1,2.11-8.74,17.61,17.61,0,0,1,16.43-10.13Zm-.13,32.43a14.4,14.4,0,0,0,12-6.89,12.89,12.89,0,0,0,1.91-6.63,15.67,15.67,0,0,0-2.58-8.76,18.2,18.2,0,0,0-6.67-6.17,16,16,0,0,0-7.58-2.23,12.82,12.82,0,0,0-8.92,3.72,12,12,0,0,0-4,9.23,17.78,17.78,0,0,0,4.89,12.39Q513,395.67,519.12,395.67Z" transform="translate(0 0)"/><path class="cls-3" d="M209.36,360.36l1.47,4.21h-.37a18.51,18.51,0,0,0-13.49-5.7q-8.07,0-13,4.79a15.52,15.52,0,0,0-5,11.59,26.32,26.32,0,0,0,2.21,9.66,20.51,20.51,0,0,0,7,9,18.85,18.85,0,0,0,11.53,3.52,27,27,0,0,0,8.7-1.43,14.17,14.17,0,0,0,6.35-3.83l.38.11-2.75,4.26q-6.69,1.46-8.69,1.72a41.7,41.7,0,0,1-5.34.27q-12.39,0-17.74-5.76A19.54,19.54,0,0,1,175.24,379,21.37,21.37,0,0,1,178,368.55a19.91,19.91,0,0,1,7.91-7.9,23.86,23.86,0,0,1,11.81-2.88,23.54,23.54,0,0,1,5.74.61,30.75,30.75,0,0,1,4,1.25l1.77.68a.23.23,0,0,1,.11.05" transform="translate(0 0)"/><path class="cls-4" d="M209.36,360.36l1.47,4.21h-.37a18.51,18.51,0,0,0-13.49-5.7q-8.07,0-13,4.79a15.52,15.52,0,0,0-5,11.59,26.32,26.32,0,0,0,2.21,9.66,20.51,20.51,0,0,0,7,9,18.85,18.85,0,0,0,11.53,3.52,27,27,0,0,0,8.7-1.43,14.17,14.17,0,0,0,6.35-3.83l.38.11-2.75,4.26q-6.69,1.46-8.69,1.72a41.7,41.7,0,0,1-5.34.27q-12.39,0-17.74-5.76A19.54,19.54,0,0,1,175.24,379,21.37,21.37,0,0,1,178,368.55a19.91,19.91,0,0,1,7.91-7.9,23.86,23.86,0,0,1,11.81-2.88,23.54,23.54,0,0,1,5.74.61,30.75,30.75,0,0,1,4,1.25l1.77.68A.23.23,0,0,1,209.36,360.36Z" transform="translate(0 0)"/><path class="cls-3" d="M555.71,358.81v-.38H567c4,0,6.9.44,8.72,1.34a9.36,9.36,0,0,1,4,3.33,9.78,9.78,0,0,1,1.24,5.25c0,3.34-1.15,5.84-3.45,7.52s-5.43,2.48-9.38,2.41v-.39a8.31,8.31,0,0,0,6.1-2.3,8.11,8.11,0,0,0,2.35-6,11.38,11.38,0,0,0-1.14-5.18,8,8,0,0,0-3.2-3.44,13.11,13.11,0,0,0-6.29-1.18h-2.81v33.77c0,1.91.21,3,.63,3.41a3.75,3.75,0,0,0,2.39.55v.38H555.71v-.38c1.86,0,2.79-.85,2.79-2.54V362.27a4.87,4.87,0,0,0-.54-2.78,2.82,2.82,0,0,0-2.25-.68" transform="translate(0 0)"/><path class="cls-4" d="M555.71,358.81v-.38H567c4,0,6.9.44,8.72,1.34a9.36,9.36,0,0,1,4,3.33,9.78,9.78,0,0,1,1.24,5.25c0,3.34-1.15,5.84-3.45,7.52s-5.43,2.48-9.38,2.41v-.39a8.31,8.31,0,0,0,6.1-2.3,8.11,8.11,0,0,0,2.35-6,11.38,11.38,0,0,0-1.14-5.18,8,8,0,0,0-3.2-3.44,13.11,13.11,0,0,0-6.29-1.18h-2.81v33.77c0,1.91.21,3,.63,3.41a3.75,3.75,0,0,0,2.39.55v.38H555.71v-.38c1.86,0,2.79-.85,2.79-2.54V362.27a4.87,4.87,0,0,0-.54-2.78A2.82,2.82,0,0,0,555.71,358.81Z" transform="translate(0 0)"/><path class="cls-3" d="M587.12,364.12v-.33h9.37c2.37,0,4.09.06,5.15.16A8.92,8.92,0,0,1,604.9,365a6.09,6.09,0,0,1,2.52,2.4,7.47,7.47,0,0,1,.85,3.72,8.53,8.53,0,0,1-1.51,4.8,12.31,12.31,0,0,1-4.29,3.85l2.34,3.59c.51.9,1.86,2.86,4.06,5.9s3.89,4.89,5.08,5.55a7.23,7.23,0,0,0,3.48,1,7.69,7.69,0,0,0,3.82-1.29l.13.45a10.61,10.61,0,0,1-7,2.22,7.49,7.49,0,0,1-4.93-1.71q-2.06-1.69-7.19-9.33a.12.12,0,0,1,0-.09L598.9,381,596,381h-2.67v12.65a4.4,4.4,0,0,0,.4,2.19q.41.66,2,.66v.32h-8.51v-.32c1,0,1.7-.27,2-.67a5.35,5.35,0,0,0,.38-2.47V367.1a5.86,5.86,0,0,0-.33-2.12c-.22-.56-.89-.85-2-.86m6.16.59v15.46h3.46q4.08,0,6.06-1.93a6.71,6.71,0,0,0,2-5.05,9.76,9.76,0,0,0-1.94-5.76q-2-2.71-6.84-2.72Z" transform="translate(0 0)"/><path class="cls-4" d="M587.12,364.12v-.33h9.37c2.37,0,4.09.06,5.15.16A8.92,8.92,0,0,1,604.9,365a6.09,6.09,0,0,1,2.52,2.4,7.47,7.47,0,0,1,.85,3.72,8.53,8.53,0,0,1-1.51,4.8,12.31,12.31,0,0,1-4.29,3.85l2.34,3.59c.51.9,1.86,2.86,4.06,5.9s3.89,4.89,5.08,5.55a7.23,7.23,0,0,0,3.48,1,7.69,7.69,0,0,0,3.82-1.29l.13.45a10.61,10.61,0,0,1-7,2.22,7.49,7.49,0,0,1-4.93-1.71q-2.06-1.69-7.19-9.33a.12.12,0,0,1,0-.09L598.9,381,596,381h-2.67v12.65a4.4,4.4,0,0,0,.4,2.19q.41.66,2,.66v.32h-8.51v-.32c1,0,1.7-.27,2-.67a5.35,5.35,0,0,0,.38-2.47V367.1a5.86,5.86,0,0,0-.33-2.12C588.91,364.42,588.24,364.13,587.12,364.12Zm6.16.59v15.46h3.46q4.08,0,6.06-1.93a6.71,6.71,0,0,0,2-5.05,9.76,9.76,0,0,0-1.94-5.76q-2-2.71-6.84-2.72Z" transform="translate(0 0)"/><path class="cls-3" d="M628.48,363.79v.33a3.38,3.38,0,0,0-1.45.2,1.3,1.3,0,0,0-.94.78,12.88,12.88,0,0,0-.14,2.45V393a10,10,0,0,0,.17,2.52,1.46,1.46,0,0,0,.65.77,3.46,3.46,0,0,0,1.71.3v.32h-8.83v-.32c1.11,0,1.8-.21,2.08-.64a6.51,6.51,0,0,0,.4-2.91V367.84a6.76,6.76,0,0,0-.45-3.08c-.3-.49-1-.7-2-.64v-.33Z" transform="translate(0 0)"/><path class="cls-4" d="M628.48,363.79v.33a3.38,3.38,0,0,0-1.45.2,1.3,1.3,0,0,0-.94.78,12.88,12.88,0,0,0-.14,2.45V393a10,10,0,0,0,.17,2.52,1.46,1.46,0,0,0,.65.77,3.46,3.46,0,0,0,1.71.3v.32h-8.83v-.32c1.11,0,1.8-.21,2.08-.64a6.51,6.51,0,0,0,.4-2.91V367.84a6.76,6.76,0,0,0-.45-3.08c-.3-.49-1-.7-2-.64v-.33Z" transform="translate(0 0)"/><path class="cls-3" d="M651.35,397.42h-.42l-11.79-29.17c-.84-2.05-1.53-3.25-2.06-3.61a3,3,0,0,0-1.67-.52v-.33h7.64v.33c-.67-.05-1,.21-1,.78a2.11,2.11,0,0,0,.13.72l10.29,25.47,10.2-25.45a2.5,2.5,0,0,0,.2-.83c0-.51-.4-.74-1.18-.69v-.33h5v.33a4.86,4.86,0,0,0-1.09.14c-.38.1-.77.49-1.18,1.16s-.61,1-.63,1.08Z" transform="translate(0 0)"/><path class="cls-4" d="M651.35,397.42h-.42l-11.79-29.17c-.84-2.05-1.53-3.25-2.06-3.61a3,3,0,0,0-1.67-.52v-.33h7.64v.33c-.67-.05-1,.21-1,.78a2.11,2.11,0,0,0,.13.72l10.29,25.47,10.2-25.45a2.5,2.5,0,0,0,.2-.83c0-.51-.4-.74-1.18-.69v-.33h5v.33a4.86,4.86,0,0,0-1.09.14c-.38.1-.77.49-1.18,1.16s-.61,1-.63,1.08Z" transform="translate(0 0)"/><path class="cls-3" d="M679.49,381.64h-9.74l-5,12.5a7.36,7.36,0,0,0-.51,1.66c0,.49.36.74,1.1.74v.32h-4.92v-.32a2.78,2.78,0,0,0,1.66-.48,6.08,6.08,0,0,0,1.48-2.51l12-30.26h.6L688,392.52a12.45,12.45,0,0,0,.9,2.12,2.94,2.94,0,0,0,2.77,1.9v.32H683.9v-.32c.71,0,1.06-.28,1.06-.83a5.39,5.39,0,0,0-.52-1.8.65.65,0,0,1-.15-.29c0-.15-.06-.22-.07-.22Zm-9.38-.92h9l-4.48-11.28Z" transform="translate(0 0)"/><path class="cls-4" d="M679.49,381.64h-9.74l-5,12.5a7.36,7.36,0,0,0-.51,1.66c0,.49.36.74,1.1.74v.32h-4.92v-.32a2.78,2.78,0,0,0,1.66-.48,6.08,6.08,0,0,0,1.48-2.51l12-30.26h.6L688,392.52a12.45,12.45,0,0,0,.9,2.12,2.94,2.94,0,0,0,2.77,1.9v.32H683.9v-.32c.71,0,1.06-.28,1.06-.83a5.39,5.39,0,0,0-.52-1.8.65.65,0,0,1-.15-.29c0-.15-.06-.22-.07-.22Zm-9.38-.92h9l-4.48-11.28Z" transform="translate(0 0)"/><path class="cls-3" d="M696.51,364.12v-.33h15.16a36.62,36.62,0,0,1,9.14.91,16.17,16.17,0,0,1,5.85,2.87,13.87,13.87,0,0,1,4,5,15.54,15.54,0,0,1,1.45,6.79,17.72,17.72,0,0,1-1.51,7.11,18.43,18.43,0,0,1-4.12,6,14.07,14.07,0,0,1-5.48,3.46,31.33,31.33,0,0,1-8.92.93H696.51v-.32h.4a1.5,1.5,0,0,0,1.57-1,11.18,11.18,0,0,0,.38-3.53v-24.1c0-1.79-.15-2.88-.46-3.25a2.37,2.37,0,0,0-1.89-.56m11.24.36h-5.08v25.63a6.38,6.38,0,0,0,.82,3.6,4.72,4.72,0,0,0,2.8,1.71,21.56,21.56,0,0,0,5.32.52q9.3,0,13.06-4.76a16.41,16.41,0,0,0,3.76-10.39,15.24,15.24,0,0,0-5.15-11.46q-5.16-4.84-15.53-4.85" transform="translate(0 0)"/><path class="cls-4" d="M696.51,364.12v-.33h15.16a36.62,36.62,0,0,1,9.14.91,16.17,16.17,0,0,1,5.85,2.87,13.87,13.87,0,0,1,4,5,15.54,15.54,0,0,1,1.45,6.79,17.72,17.72,0,0,1-1.51,7.11,18.43,18.43,0,0,1-4.12,6,14.07,14.07,0,0,1-5.48,3.46,31.33,31.33,0,0,1-8.92.93H696.51v-.32h.4a1.5,1.5,0,0,0,1.57-1,11.18,11.18,0,0,0,.38-3.53v-24.1c0-1.79-.15-2.88-.46-3.25A2.37,2.37,0,0,0,696.51,364.12Zm11.24.36h-5.08v25.63a6.38,6.38,0,0,0,.82,3.6,4.72,4.72,0,0,0,2.8,1.71,21.56,21.56,0,0,0,5.32.52q9.3,0,13.06-4.76a16.41,16.41,0,0,0,3.76-10.39,15.24,15.24,0,0,0-5.15-11.46Q718.12,364.49,707.75,364.48Z" transform="translate(0 0)"/><path class="cls-3" d="M756.61,363.24A15.77,15.77,0,0,1,768,367.49a14.08,14.08,0,0,1,4.43,10.59,19.59,19.59,0,0,1-5.12,13.75q-5.13,5.58-13.6,5.59a15.2,15.2,0,0,1-15.64-15.31,20.42,20.42,0,0,1,2.12-8.74,17.58,17.58,0,0,1,16.42-10.13m-.13,32.43a14.37,14.37,0,0,0,12-6.89,12.89,12.89,0,0,0,1.91-6.63,15.74,15.74,0,0,0-2.57-8.76,18.36,18.36,0,0,0-6.67-6.17,16,16,0,0,0-7.58-2.23,12.82,12.82,0,0,0-8.93,3.72,12.07,12.07,0,0,0-4,9.23,17.79,17.79,0,0,0,4.9,12.39q4.89,5.34,11,5.34" transform="translate(0 0)"/><path class="cls-4" d="M756.61,363.24A15.77,15.77,0,0,1,768,367.49a14.08,14.08,0,0,1,4.43,10.59,19.59,19.59,0,0,1-5.12,13.75q-5.13,5.58-13.6,5.59a15.2,15.2,0,0,1-15.64-15.31,20.42,20.42,0,0,1,2.12-8.74,17.58,17.58,0,0,1,16.42-10.13Zm-.13,32.43a14.37,14.37,0,0,0,12-6.89,12.89,12.89,0,0,0,1.91-6.63,15.74,15.74,0,0,0-2.57-8.76,18.36,18.36,0,0,0-6.67-6.17,16,16,0,0,0-7.58-2.23,12.82,12.82,0,0,0-8.93,3.72,12.07,12.07,0,0,0-4,9.23,17.79,17.79,0,0,0,4.9,12.39Q750.39,395.67,756.48,395.67Z" transform="translate(0 0)"/><path class="cls-5" d="M363.29,156.28s-24.64-.55-30.67,4.93-12,11.49-15.87,23S308,229.1,260.9,241.69c0,0-34.5,4.93-53.11,4.38,0,0,22.45-3.83,47.09-23.27s24.91-53.11,22.44-70.9c0,0,8.76-15.33,20.26-21.91s26.56-3.28,32.58.28,10.95,13.14,17.79,17.52a175,175,0,0,0,15.34,8.49" transform="translate(0 0)"/><path class="cls-6" d="M363.29,156.28s-24.64-.55-30.67,4.93-12,11.49-15.87,23S308,229.1,260.9,241.69c0,0-34.5,4.93-53.11,4.38,0,0,22.45-3.83,47.09-23.27s24.91-53.11,22.44-70.9c0,0,8.76-15.33,20.26-21.91s26.56-3.28,32.58.28,10.95,13.14,17.79,17.52A175,175,0,0,0,363.29,156.28Z" transform="translate(0 0)"/><path class="cls-7" d="M272.94,168.32s.55-87.6,1.65-101.84S281.7,12.28,291,.23c0,0-43.25,27.92-59.13,88.7,0,0,21,15.44,32.85,52.56,7.39,23.14,8.21,26.83,8.21,26.83" transform="translate(0 0)"/><path class="cls-8" d="M272.94,168.32s.55-87.6,1.65-101.84S281.7,12.28,291,.23c0,0-43.25,27.92-59.13,88.7,0,0,21,15.44,32.85,52.56C272.12,164.63,272.94,168.32,272.94,168.32Z" transform="translate(0 0)"/><path class="cls-9" d="M124.56,257S137.7,239,171.65,236.76s78.84-12,89.25-30.11,8.21-45.44-3.29-70.63-37.78-53.66-44.9-60.78S193,57.72,192.46,52.79c0,0-3.84,47.64,8.21,67.35,0,0,4.93,14.24,12.59,21.9s-3.28,11-6,4.93-26.28-8.76-37.78-9.86c0,0,16.43,23.55,23,24.64s3.83,5.2,0,6.57c0,0-5.48,1.65-7.67.55s.55,4.38,12.05,7.67,1.09,8.76-2.74,8.76-32.31,17-45.45,30.66c-15,15.65-24.09,41.06-24.09,41.06" transform="translate(0 0)"/><path class="cls-10" d="M124.56,257S137.7,239,171.65,236.76s78.84-12,89.25-30.11,8.21-45.44-3.29-70.63-37.78-53.66-44.9-60.78S193,57.72,192.46,52.79c0,0-3.84,47.64,8.21,67.35,0,0,4.93,14.24,12.59,21.9s-3.28,11-6,4.93-26.28-8.76-37.78-9.86c0,0,16.43,23.55,23,24.64s3.83,5.2,0,6.57c0,0-5.48,1.65-7.67.55s.55,4.38,12.05,7.67,1.09,8.76-2.74,8.76-32.31,17-45.45,30.66C133.63,231.61,124.56,257,124.56,257Z" transform="translate(0 0)"/><path class="cls-11" d="M128.4,278.38c1.64-.28,6.62-2.47,4.38-10.95-1.92-7.26-21.63-7.94-32.31,3.55-6.17,6.65-23,27.11-19.71,46.82s24.64-1.1,24.64-1.1.55,10.95,4.38,11.5,29-31.21,29.57-44.9l-2.47-.27s-7.12,19.16-19.44,34.22-4.1-10.4-1.36-15.06,4.65-13.14,9.85-18.61S117.72,280,115.8,283s-7.66,15.33-11.77,26.83-8.49,10.95-11.77,11.22-3-6.84.55-18.61,11.49-23.82,20.25-27.93,12.6-2.46,12.87-.54.82,4.65,2.47,4.38" transform="translate(0 0)"/><path class="cls-11" d="M20.81,286.86c.9-1.5,19.16-36.41,24.91-46.54S65.43,215.68,82.13,219s8.21,24.64,2.19,32.85-24.75,30-43,36.69c-21.63,7.94-22.18,1.09-20.53-1.65m29-76.38,12-.27s-5.2,7.12-.82,6a81.83,81.83,0,0,0,10.13-3.56s13.14-7.12,23.27.82c12.67,9.94,4.65,35.32-4.93,47.37-7.71,9.68-26.48,32.07-53.11,37.78-19.16,4.1-21.9,1.91-21.9,1.91S6.3,324.92,6.57,333.68c0,0-6.3,4.1-6.3-5.48s7.4-30.39,7.94-31.48S8.49,294,4.65,294l-.54-6.84s7.39,1.91,9-1.1S20,267.15,30.39,247.71s19.44-37.23,19.44-37.23" transform="translate(0 0)"/><path class="cls-12" d="M20.81,286.86c.9-1.5,19.16-36.41,24.91-46.54S65.43,215.68,82.13,219s8.21,24.64,2.19,32.85-24.75,30-43,36.69C19.71,296.45,19.16,289.6,20.81,286.86Zm29-76.38,12-.27s-5.2,7.12-.82,6a81.83,81.83,0,0,0,10.13-3.56s13.14-7.12,23.27.82c12.67,9.94,4.65,35.32-4.93,47.37-7.71,9.68-26.48,32.07-53.11,37.78-19.16,4.1-21.9,1.91-21.9,1.91S6.3,324.92,6.57,333.68c0,0-6.3,4.1-6.3-5.48s7.4-30.39,7.94-31.48S8.49,294,4.65,294l-.54-6.84s7.39,1.91,9-1.1S20,267.15,30.39,247.71,49.83,210.48,49.83,210.48Z" transform="translate(0 0)"/><path class="cls-11" d="M148.11,270.71c-1.92,0-.28-6.84,3-6.84s-1.1,6.84-3,6.84m16.42,42.16s1.1,7.94-9.58,10.4-10.95-5.61-10-7.52c.82-1.65,2.23-3.84,7.8-3.43,11,.83,11.77.55,11.77.55m-15.88-27.1-4.92,6.3-2.19-2.2,4.92-8.76s-10.26-9.58-.82-19.71c10.18-10.91,15.06,4.93,6.85,14.79,0,0,19.16,18.07,19.71,24.64,0,0,10.4-9.31,13.14-15.88l3.83,1.09s-8.76,17-18.07,21.9c0,0,1.1,21.46-20.26,20.81-17.93-.55-16.83-17-9.85-20.81,9.27-5.09,23.54.55,23.54.55a6,6,0,0,0-1.09-7.12c-3.29-3.28-14.79-15.6-14.79-15.6" transform="translate(0 0)"/><path class="cls-12" d="M148.11,270.71c-1.92,0-.28-6.84,3-6.84S150,270.71,148.11,270.71Zm16.42,42.16s1.1,7.94-9.58,10.4-10.95-5.61-10-7.52c.82-1.65,2.23-3.84,7.8-3.43C163.71,313.15,164.53,312.87,164.53,312.87Zm-15.88-27.1-4.92,6.3-2.19-2.2,4.92-8.76s-10.26-9.58-.82-19.71c10.18-10.91,15.06,4.93,6.85,14.79,0,0,19.16,18.07,19.71,24.64,0,0,10.4-9.31,13.14-15.88l3.83,1.09s-8.76,17-18.07,21.9c0,0,1.1,21.46-20.26,20.81-17.93-.55-16.83-17-9.85-20.81,9.27-5.09,23.54.55,23.54.55a6,6,0,0,0-1.09-7.12C160.15,298.09,148.65,285.77,148.65,285.77Z" transform="translate(0 0)"/><path class="cls-11" d="M341.38,217.87l10.13-10.12s6.3.27,9.59,11.49S364.38,277,364.38,277v36.41s-1.92,8.21,6.57-18.62,40.79-82.67,40.79-82.67l14,.27s-5.47,7.39-11.22,17-27.92,45.45-38.05,74.19-10.13,32-10.13,32-5.48,1.1-6.3-.54-4.93-43.53-5.75-56.67-2.19-43.81-4.11-50.1-8.76-10.41-8.76-10.41" transform="translate(0 0)"/><path class="cls-11" d="M198.89,315.75s12.73-.69,22.31-15.75c8.36-13.13,9.31-26.82,6-33.12-2.38-4.58-15.33-7.39-24.63,1.64S187.67,286.73,187,307.67c-.75,23,14.78,21.08,17.8,21.08s16.92-7.46,25.46-18.62,9-13.14,9-13.14l4.24-12.59s-10.26,14-14.64,19.44-12.32,14-21.36,17.24-15.39-4-12.59-4.92a26.68,26.68,0,0,1,4-.41m-4.38-13.28s-1.51,9.58,5.34,7.94c7.41-1.78,18.07-17.25,19.44-24.37s.54-12.86-3-12.86-9.47,2.43-15.6,12.32a48.71,48.71,0,0,0-6.16,17" transform="translate(0 0)"/><path class="cls-12" d="M198.89,315.75s12.73-.69,22.31-15.75c8.36-13.13,9.31-26.82,6-33.12-2.38-4.58-15.33-7.39-24.63,1.64S187.67,286.73,187,307.67c-.75,23,14.78,21.08,17.8,21.08s16.92-7.46,25.46-18.62,9-13.14,9-13.14l4.24-12.59s-10.26,14-14.64,19.44-12.32,14-21.36,17.24-15.39-4-12.59-4.92A26.68,26.68,0,0,1,198.89,315.75Zm-4.38-13.28s-1.51,9.58,5.34,7.94c7.41-1.78,18.07-17.25,19.44-24.37s.54-12.86-3-12.86-9.47,2.43-15.6,12.32A48.71,48.71,0,0,0,194.51,302.47Z" transform="translate(0 0)"/><path class="cls-11" d="M421.87,319.72c.55-7.12,4.66-27.11,9.86-41.07s18.07-36.68,20.8-41.34,7.94-9,12.6-7.39,2.73,7.94-5.21,21.63-20.8,37.5-24.09,44.35-10.95,26.83-6.29,23.82,10.95-12.87,16.15-20.81c3.12-4.77,7.66-16.43,7.66-16.43l3,1.37s-4.39,19.72-21.63,38.06c-12.87,13.68-12.87-2.19-12.87-2.19" transform="translate(0 0)"/><path class="cls-11" d="M275.68,286.18s-2.6-1-3.83,2.19-.55,6.16,1.91,5.61,2.33-2.19,2.88-3.83-1-4-1-4m.69-23.41s-4.66-3-13.42,1c-8.17,3.7-17.25,11.23-23.41,33.81-2.09,7.69-1.64,27.38,9.59,30.12s21.62-7.12,28.19-19.72c0,0,6.44.83,14-7.66L299.77,286l-3-2.73s-9.31,20-16.7,18.88c0,0-2.74-1.09-.27-2.73s6.57-11.36,5.75-19.85-2.73-11.35-6.3-14.92a7.7,7.7,0,0,0-2.87-1.92m-2.61,16.43a11.14,11.14,0,0,0-8.48,9.85c-1.1,8.49,4.65,11.5,4.65,11.5s.28,6.57-1.91,10.13-8.77,12.87-16.7,11.23-6-16.16-3-27.11,11.78-20.8,20-21.08,5.47,5.48,5.47,5.48" transform="translate(0 0)"/><path class="cls-12" d="M275.68,286.18s-2.6-1-3.83,2.19-.55,6.16,1.91,5.61,2.33-2.19,2.88-3.83S275.68,286.18,275.68,286.18Zm.69-23.41s-4.66-3-13.42,1c-8.17,3.7-17.25,11.23-23.41,33.81-2.09,7.69-1.64,27.38,9.59,30.12s21.62-7.12,28.19-19.72c0,0,6.44.83,14-7.66L299.77,286l-3-2.73s-9.31,20-16.7,18.88c0,0-2.74-1.09-.27-2.73s6.57-11.36,5.75-19.85-2.73-11.35-6.3-14.92A7.7,7.7,0,0,0,276.37,262.77Zm-2.61,16.43a11.14,11.14,0,0,0-8.48,9.85c-1.1,8.49,4.65,11.5,4.65,11.5s.28,6.57-1.91,10.13-8.77,12.87-16.7,11.23-6-16.16-3-27.11,11.78-20.8,20-21.08S273.76,279.2,273.76,279.2Z" transform="translate(0 0)"/><path class="cls-11" d="M450,321c.55-7.12,4.66-27.1,9.86-41.06s18.07-36.69,20.8-41.34,7.94-9,12.6-7.39,2.73,7.94-5.21,21.62-20.8,37.51-24.09,44.35S453,324,457.68,321s10.18-11.13,16.15-20.8c3-4.85,7.66-16.43,7.66-16.43l3,1.37s-4.39,19.71-21.63,38.05C450,336.87,450,321,450,321" transform="translate(0 0)"/><path class="cls-11" d="M529.08,279.7c1.65-.27,6.63-2.46,4.38-10.95-1.91-7.25-21.52-9-33.57,3.6-6.26,6.55-23.94,27.56-18.44,46.77C487,338.61,506.09,318,506.09,318s.51,11.62,4.38,11.5c7.49-.23,28-31.44,29.56-44.9l-2.46-.27s-7.12,19.16-19.44,34.22-4.1-10.41-1.37-15.06,4.66-13.14,9.86-18.62-8.21-3.56-10.13-.54-6.53,15.8-11.77,26.82c-5.1,10.73-8.49,11-11.77,11.23s-3-6.85.54-18.62S505,280,513.75,275.87s12.6-2.47,12.87-.55.82,4.66,2.46,4.38" transform="translate(0 0)"/><path class="cls-11" d="M411.74,264.69s7.67-3.56,9.58-.55-8.76,18.89-14.51,30.94-13.14,28.19-7.39,23.81,20.54-27.37,23-36.41c0,0,3.28-1.64,3.56,1.37s-4.66,19.44-20.26,37c0,0-3.56,4.11-6.84,7.12-1.67,1.52-7.4,4.65-6.57-6.85s5.47-25.18,8.48-34.22,10.95-22.17,10.95-22.17" transform="translate(0 0)"/><path class="cls-13" d="M417.22,255.11a4.11,4.11,0,1,1,4.1,4.1,4.11,4.11,0,0,1-4.1-4.1" transform="translate(0 0)"/><path class="cls-14" d="M417.22,255.11a4.11,4.11,0,1,1,4.1,4.1A4.11,4.11,0,0,1,417.22,255.11Z" transform="translate(0 0)"/><path class="cls-11" d="M719.9,286.41s-2.6-1-3.83,2.19-.55,6.16,1.92,5.61,2.32-2.19,2.87-3.83-1-4-1-4m.69-23.41s-4.66-3-13.42,1c-8.16,3.7-17.24,11.22-23.4,33.81-2.1,7.69-1.65,27.38,9.58,30.11s21.63-7.11,28.2-19.71c0,0,6.43.82,14-7.66L744,286.27l-3-2.74s-9.3,20-16.7,18.89c0,0-2.73-1.09-.27-2.73s6.57-11.37,5.75-19.85-2.73-11.35-6.3-14.92a7.62,7.62,0,0,0-2.87-1.92M718,279.43a11.16,11.16,0,0,0-8.49,9.85c-1.09,8.49,4.65,11.5,4.65,11.5s.28,6.57-1.91,10.13-8.76,12.87-16.7,11.23-6-16.16-3-27.11,11.77-20.8,20-21.08,5.48,5.48,5.48,5.48" transform="translate(0 0)"/><path class="cls-12" d="M719.9,286.41s-2.6-1-3.83,2.19-.55,6.16,1.92,5.61,2.32-2.19,2.87-3.83S719.9,286.41,719.9,286.41Zm.69-23.41s-4.66-3-13.42,1c-8.16,3.7-17.24,11.22-23.4,33.81-2.1,7.69-1.65,27.38,9.58,30.11s21.63-7.11,28.2-19.71c0,0,6.43.82,14-7.66L744,286.27l-3-2.74s-9.3,20-16.7,18.89c0,0-2.73-1.09-.27-2.73s6.57-11.37,5.75-19.85-2.73-11.35-6.3-14.92A7.62,7.62,0,0,0,720.59,263ZM718,279.43a11.16,11.16,0,0,0-8.49,9.85c-1.09,8.49,4.65,11.5,4.65,11.5s.28,6.57-1.91,10.13-8.76,12.87-16.7,11.23-6-16.16-3-27.11,11.77-20.8,20-21.08S718,279.43,718,279.43Z" transform="translate(0 0)"/><path class="cls-11" d="M901.44,279.06c1.65-.27,6.62-2.46,4.38-10.95-1.91-7.25-21.52-9-33.57,3.61-6.26,6.55-23.94,27.56-18.44,46.77,5.58,19.48,24.64-1.1,24.64-1.1s.51,11.62,4.38,11.5c7.49-.23,28-31.44,29.56-44.9l-2.46-.27s-7.12,19.16-19.44,34.22-4.1-10.4-1.37-15.06,4.66-13.14,9.86-18.61-8.21-3.56-10.13-.55-6.53,15.8-11.77,26.83c-5.1,10.72-8.49,10.95-11.77,11.22s-3-6.84.54-18.61,11.5-23.82,20.26-27.93,12.59-2.46,12.87-.55.82,4.66,2.46,4.38" transform="translate(0 0)"/><path class="cls-11" d="M817.32,264.64s7.66-3.56,9.58-.55S818.14,283,812.39,295s-13.14,28.19-7.39,23.81,20.53-27.37,23-36.41c0,0,3.28-1.64,3.56,1.37s-4.66,19.44-20.26,37c0,0-3.56,4.11-6.85,7.12-1.66,1.52-7.39,4.65-6.57-6.85s5.48-25.18,8.49-34.22,11-22.17,11-22.17" transform="translate(0 0)"/><path class="cls-13" d="M822.79,255.06a4.11,4.11,0,1,1,4.11,4.1,4.11,4.11,0,0,1-4.11-4.1" transform="translate(0 0)"/><path class="cls-14" d="M822.79,255.06a4.11,4.11,0,1,1,4.11,4.1A4.11,4.11,0,0,1,822.79,255.06Z" transform="translate(0 0)"/><path class="cls-11" d="M753.67,266.88s-12.59,29.57-14.23,60.77l4.65.55s2.47-26.28,15.61-41.06S775,269.07,780,270.71s-3.29,19.16-6,25.19-10.95,29-6.57,34.49,10.41-.55,14.24-6,23-38.33,23-38.33l-2.19-3.83s-21.9,41.06-26.82,41.06,8.21-29,11.49-36.13,8.79-20.78,2.74-26.83c-4.38-4.38-17.52,2.74-22.45,11.5-1.52,2.7-1.91,4.65-3.56,4.1-2.64-.88,2.47-10.67,2.47-10.67Z" transform="translate(0 0)"/><path class="cls-11" d="M859.62,238.68l-24.36.55s-13.42,6.84-9.86,7.39,28.47,1.09,28.47,1.09S838,274,830.6,300.55s-3.83,26.83.82,26,22.18-25.19,27.93-37.78c0,0,1.37-5.48-.55-4.93s-8.21,18.34-21.9,32.85,7.12-30.93,12.32-41.33,14-28.2,14-28.2h21.63s9-7.67,7.39-7.67H868.93s3.56-6,3.83-7.94-.55-5.2-5.47-4.1-7.67,11.22-7.67,11.22" transform="translate(0 0)"/><path class="cls-12" d="M859.62,238.68l-24.36.55s-13.42,6.84-9.86,7.39,28.47,1.09,28.47,1.09S838,274,830.6,300.55s-3.83,26.83.82,26,22.18-25.19,27.93-37.78c0,0,1.37-5.48-.55-4.93s-8.21,18.34-21.9,32.85,7.12-30.93,12.32-41.33,14-28.2,14-28.2h21.63s9-7.67,7.39-7.67H868.93s3.56-6,3.83-7.94-.55-5.2-5.47-4.1S859.62,238.68,859.62,238.68Z" transform="translate(0 0)"/><path class="cls-11" d="M645.81,260s-7.94-6.29-12.32-4.38,1.37,5.75,4.66,6,7.66-1.65,7.66-1.65m-7.39-50.37s12.87-1.91,12.32,1.1-9.31,15.33-22.18,39.15-33.94,67.07-32,69.81,9.59,10.4,28.48,6.29,33.39-21.63,35.58-36.13-2.73-23-2.73-23-32.58,8.21-31.49-10.68,31.76,3,34.5,2.19,22.45-17.79,18.89-37-34.22,9.86-34.22,9.86-.82-2.74,4.38-11.5,21.63-14.23,30.66-9.85,17.79,27.1-3.83,45.44a31.1,31.1,0,0,1-12,7.39s10.68,10.68,4.93,31.76S637.87,346,597.35,328.2c0,0-23.54-11.5-11.77-42.16,0,0,8.49-4.93,7.39-1.37s-6.57,13.69-2.73,25.46,1.64-7.66,10.4-26.55c6.14-13.24,37.78-73.92,37.78-73.92" transform="translate(0 0)"/></g></svg>