<svg id="Capa_1" data-name="Capa 1" xmlns="http://www.w3.org/2000/svg" xmlns:xlink="http://www.w3.org/1999/xlink" viewBox="0 0 707.25 233.31"><defs><style>.cls-1{fill:none;}.cls-2{clip-path:url(#clip-path);}.cls-3{fill:#e7d600;}.cls-10,.cls-3,.cls-4,.cls-5,.cls-6,.cls-7,.cls-8,.cls-9{fill-rule:evenodd;}.cls-4{fill:#a0b8b0;}.cls-5{fill:#486841;}.cls-6{fill:#d1d8b6;}.cls-7{fill:#85553b;}.cls-8{fill:#d6eeee;}.cls-9{fill:#231f20;}.cls-10{fill:#a0cf67;}</style><clipPath id="clip-path" transform="translate(1.14 -1.08)"><rect class="cls-1" x="-1.14" y="1.08" width="707.25" height="233.31"/></clipPath></defs><g class="cls-2"><path class="cls-3" d="M349,41.85s-1.53-31.62,55.62-28.57c0,0-11.43,57.53-43.05,45.33,0,0,20.95-12.57,16-27,0,0-13.72-6.85-24.76,6.1Z" transform="translate(1.14 -1.08)"/><path class="cls-4" d="M324.24,42.61s-1.9-17.9,5.72-18.67,8.76,12.2,8.38,17.15,22.86-6.1-5.72-40c0,0-21.15,19.11-13.71,35.06,2.66,5.71,5.33,6.47,5.33,6.47" transform="translate(1.14 -1.08)"/><path class="cls-5" d="M354.72,107.76s1.14-21,33.53-20.57c0,0,5.33,23.62-16,38.1,0,0,40,22.48,51.05-67.44,0,0-62.86,3-69.72,35.44a29.07,29.07,0,0,0-.38,9.52c.76,4.19,1.52,5,1.52,5" transform="translate(1.14 -1.08)"/><path class="cls-6" d="M308.24,91.38c3.05-1.14-17.15-5.33-21.34-27.81,0,0,21-8.76,35.05,9.9,0,0,7.78-24.06-27-31.68l-1.54-.32-35.44-3.81s7.24,37,24,46.86,23.24,8,26.29,6.86" transform="translate(1.14 -1.08)"/><path class="cls-7" d="M336.05,188.92h19.43s-17.9-44.2-16.76-57.15c0,0,19.43-10.29,25.53-15.62S380.63,99,381.39,93.67c0,0-21.72,28.19-42.67,27.81,0,0-4.19-2.67-3.05-32.77S367.29,38,367.29,38,344.43,48.33,341,60.9a24,24,0,0,1-8.38-19.43s-3.05,17.91,3.81,22.86c0,0-9.14,20.19-7.24,29.72,0,0-9.9-16-26.67-18.67,0,0,21.34,14.48,24,24.38s-4.1,52.06,6.85,83.82Z" transform="translate(1.14 -1.08)"/><path class="cls-8" d="M-1.14,210.25S8.77,187.39,12.19,184c0,0,77.73,57.15,306.34,23.62,0,0-145.55,54.86-310.15,7.62Z" transform="translate(1.14 -1.08)"/><path class="cls-9" d="M586,219.81a.55.55,0,0,1-.14.22.55.55,0,0,1-.25.14,1.31,1.31,0,0,1-.4.07l-.62,0h-.49a1.86,1.86,0,0,1-.36,0l-.26-.05a.51.51,0,0,1-.18-.09.34.34,0,0,1-.12-.12.54.54,0,0,1-.08-.17l-5.33-15.16a1.33,1.33,0,0,1-.11-.44.29.29,0,0,1,.11-.26.69.69,0,0,1,.36-.12l.68,0a4.29,4.29,0,0,1,.56,0,.9.9,0,0,1,.33.07.37.37,0,0,1,.17.13,1,1,0,0,1,.1.21L584.64,218h0l4.55-13.71a.56.56,0,0,1,.09-.22.3.3,0,0,1,.17-.14,1,1,0,0,1,.35-.07,5.35,5.35,0,0,1,.61,0,5,5,0,0,1,.62,0,.53.53,0,0,1,.31.12.34.34,0,0,1,.06.26,1.9,1.9,0,0,1-.12.45Z" transform="translate(1.14 -1.08)"/><path class="cls-9" d="M598.27,219.87a.31.31,0,0,1,0,.17.34.34,0,0,1-.16.12,1.65,1.65,0,0,1-.32.08l-.52,0-.51,0a1.65,1.65,0,0,1-.32-.08.32.32,0,0,1-.17-.12.31.31,0,0,1,0-.17V208.52a.33.33,0,0,1,0-.17.32.32,0,0,1,.17-.12,1.14,1.14,0,0,1,.32-.08,3.86,3.86,0,0,1,.51,0,4,4,0,0,1,.52,0,1.14,1.14,0,0,1,.32.08.3.3,0,0,1,.21.29Zm.23-15.18a1.41,1.41,0,0,1-.27,1,1.5,1.5,0,0,1-1,.27,1.51,1.51,0,0,1-1-.26,1.92,1.92,0,0,1,0-2,2.08,2.08,0,0,1,2,0,1.35,1.35,0,0,1,.27,1" transform="translate(1.14 -1.08)"/><path class="cls-9" d="M605.48,219.87a.31.31,0,0,1-.05.17.37.37,0,0,1-.17.12,1.48,1.48,0,0,1-.32.08l-.52,0-.5,0a1.59,1.59,0,0,1-.33-.08.3.3,0,0,1-.16-.12.31.31,0,0,1,0-.17V203a.34.34,0,0,1,0-.18.3.3,0,0,1,.16-.12,1.14,1.14,0,0,1,.33-.08,3.63,3.63,0,0,1,.5,0,3.79,3.79,0,0,1,.52,0,1.06,1.06,0,0,1,.32.08.37.37,0,0,1,.17.12.35.35,0,0,1,.05.18Z" transform="translate(1.14 -1.08)"/><path class="cls-9" d="M612.37,219.87a.25.25,0,0,1,0,.17.34.34,0,0,1-.16.12,1.48,1.48,0,0,1-.32.08l-.52,0-.51,0a1.65,1.65,0,0,1-.32-.08.3.3,0,0,1-.16-.12.31.31,0,0,1-.05-.17V203a.35.35,0,0,1,.05-.18.3.3,0,0,1,.16-.12,1.14,1.14,0,0,1,.32-.08,6.64,6.64,0,0,1,1,0,1.06,1.06,0,0,1,.32.08.34.34,0,0,1,.16.12.27.27,0,0,1,0,.18Z" transform="translate(1.14 -1.08)"/><path class="cls-9" d="M625.72,219.88a.26.26,0,0,1-.1.23.61.61,0,0,1-.27.11,2.32,2.32,0,0,1-.52,0,2.43,2.43,0,0,1-.52,0,.61.61,0,0,1-.29-.11.29.29,0,0,1-.09-.23v-1.13a5.39,5.39,0,0,1-1.65,1.23,4.48,4.48,0,0,1-1.94.44,5.11,5.11,0,0,1-1.62-.24,3.44,3.44,0,0,1-1.24-.67,3.09,3.09,0,0,1-.79-1.09,3.56,3.56,0,0,1-.29-1.46,3.41,3.41,0,0,1,.39-1.67,3.24,3.24,0,0,1,1.13-1.17,5.31,5.31,0,0,1,1.79-.7,10.8,10.8,0,0,1,2.38-.23h1.57v-.89a4.5,4.5,0,0,0-.14-1.16,1.89,1.89,0,0,0-.45-.84,2,2,0,0,0-.8-.51,3.83,3.83,0,0,0-1.21-.17,4.56,4.56,0,0,0-1.38.19,7.26,7.26,0,0,0-1.07.41,8.27,8.27,0,0,0-.76.41,1.09,1.09,0,0,1-.46.18.35.35,0,0,1-.18-.05.39.39,0,0,1-.13-.15.61.61,0,0,1-.08-.26,1.79,1.79,0,0,1,0-.34,2.23,2.23,0,0,1,0-.5.76.76,0,0,1,.22-.34,2.83,2.83,0,0,1,.58-.39,7.28,7.28,0,0,1,1-.41,9.23,9.23,0,0,1,1.18-.3,7.16,7.16,0,0,1,1.3-.13,6.93,6.93,0,0,1,2.08.28,3.47,3.47,0,0,1,1.39.82,3.12,3.12,0,0,1,.76,1.33,6.44,6.44,0,0,1,.24,1.85Zm-2.06-5.2h-1.78a6.43,6.43,0,0,0-1.48.15,3.16,3.16,0,0,0-1,.43,1.71,1.71,0,0,0-.61.68,2.07,2.07,0,0,0-.19.92,1.8,1.8,0,0,0,.56,1.4,2.18,2.18,0,0,0,1.56.53,2.9,2.9,0,0,0,1.52-.42,6.5,6.5,0,0,0,1.47-1.27Z" transform="translate(1.14 -1.08)"/><path class="cls-9" d="M641,214a9.87,9.87,0,0,1-.32,2.65,5.84,5.84,0,0,1-.94,2,4.14,4.14,0,0,1-1.53,1.27,4.61,4.61,0,0,1-2.08.45,4.51,4.51,0,0,1-1-.11,3.72,3.72,0,0,1-.9-.35,6.26,6.26,0,0,1-.88-.6,12.35,12.35,0,0,1-.93-.89v1.4a.29.29,0,0,1,0,.18.34.34,0,0,1-.16.12,1.54,1.54,0,0,1-.29.07l-.44,0-.43,0a1.77,1.77,0,0,1-.29-.07.31.31,0,0,1-.15-.12.34.34,0,0,1,0-.18V203a.35.35,0,0,1,.05-.18.3.3,0,0,1,.16-.12,1.14,1.14,0,0,1,.32-.08l.51,0,.52,0a1.06,1.06,0,0,1,.32.08.34.34,0,0,1,.16.12.27.27,0,0,1,0,.18v6.78a9.3,9.3,0,0,1,1-.87,6.23,6.23,0,0,1,.92-.57,3.81,3.81,0,0,1,.91-.32,4.72,4.72,0,0,1,3.06.39,4.06,4.06,0,0,1,1.42,1.31,5.83,5.83,0,0,1,.8,1.94A10.45,10.45,0,0,1,641,214m-2.17.24a10.46,10.46,0,0,0-.13-1.7,4.75,4.75,0,0,0-.46-1.45,2.89,2.89,0,0,0-.87-1,2.31,2.31,0,0,0-1.35-.38,2.65,2.65,0,0,0-.79.11,2.91,2.91,0,0,0-.8.38,6.78,6.78,0,0,0-.84.68,9.59,9.59,0,0,0-.93,1.06v4.52a8.65,8.65,0,0,0,1.64,1.6,2.8,2.8,0,0,0,1.63.55,2.34,2.34,0,0,0,1.34-.37,2.93,2.93,0,0,0,.9-1,5.06,5.06,0,0,0,.51-1.4,8.27,8.27,0,0,0,.15-1.57" transform="translate(1.14 -1.08)"/><path class="cls-9" d="M655.61,214.06a8.59,8.59,0,0,1-.36,2.55,5.73,5.73,0,0,1-1.09,2,4.82,4.82,0,0,1-1.81,1.32,6.24,6.24,0,0,1-2.53.48,6.53,6.53,0,0,1-2.44-.42,4.47,4.47,0,0,1-1.73-1.21,5.18,5.18,0,0,1-1-1.93,8.84,8.84,0,0,1-.34-2.57,8.66,8.66,0,0,1,.36-2.56,5.73,5.73,0,0,1,1.08-2,4.91,4.91,0,0,1,1.81-1.31,6.35,6.35,0,0,1,2.53-.47,6.53,6.53,0,0,1,2.44.42,4.47,4.47,0,0,1,1.73,1.21,5.2,5.2,0,0,1,1,1.93,8.82,8.82,0,0,1,.34,2.56m-2.17.13a8.15,8.15,0,0,0-.17-1.74,4.21,4.21,0,0,0-.56-1.44,2.78,2.78,0,0,0-1.06-1,4,4,0,0,0-3.26,0,2.89,2.89,0,0,0-1.09.93,4.11,4.11,0,0,0-.64,1.42,7.2,7.2,0,0,0-.21,1.79,8.28,8.28,0,0,0,.17,1.76,4,4,0,0,0,.57,1.43,2.79,2.79,0,0,0,1.07,1,3.47,3.47,0,0,0,1.67.36,3.57,3.57,0,0,0,1.58-.33,2.89,2.89,0,0,0,1.1-.92,4,4,0,0,0,.63-1.41,7.33,7.33,0,0,0,.2-1.81" transform="translate(1.14 -1.08)"/><path class="cls-9" d="M669.44,219.87a.31.31,0,0,1-.05.17.37.37,0,0,1-.17.12,1.37,1.37,0,0,1-.31.08l-.51,0-.52,0a1.48,1.48,0,0,1-.32-.08.34.34,0,0,1-.16-.12.25.25,0,0,1,0-.17v-6.65a6.51,6.51,0,0,0-.15-1.56,3.18,3.18,0,0,0-.44-1A1.9,1.9,0,0,0,666,210a2.36,2.36,0,0,0-1.06-.23,2.66,2.66,0,0,0-1.55.56,8.32,8.32,0,0,0-1.63,1.63v7.93a.31.31,0,0,1,0,.17.37.37,0,0,1-.17.12,1.37,1.37,0,0,1-.31.08l-.52,0-.51,0a1.65,1.65,0,0,1-.32-.08.32.32,0,0,1-.17-.12.31.31,0,0,1,0-.17V208.52a.3.3,0,0,1,.19-.3.73.73,0,0,1,.29-.07,5.42,5.42,0,0,1,.93,0,.73.73,0,0,1,.29.07.44.44,0,0,1,.14.13.29.29,0,0,1,.05.17V210a7,7,0,0,1,1.9-1.58,4.09,4.09,0,0,1,1.92-.49,4.18,4.18,0,0,1,1.9.38,3.35,3.35,0,0,1,1.25,1,4.1,4.1,0,0,1,.69,1.51,8.8,8.8,0,0,1,.21,2.07Z" transform="translate(1.14 -1.08)"/><path class="cls-9" d="M676.31,219.87a.31.31,0,0,1,0,.17.37.37,0,0,1-.17.12,1.48,1.48,0,0,1-.32.08l-.52,0-.5,0a1.59,1.59,0,0,1-.33-.08.3.3,0,0,1-.16-.12.31.31,0,0,1,0-.17V208.52a.34.34,0,0,1,0-.17.3.3,0,0,1,.16-.12,1.14,1.14,0,0,1,.33-.08,3.63,3.63,0,0,1,.5,0,3.79,3.79,0,0,1,.52,0,1.06,1.06,0,0,1,.32.08.37.37,0,0,1,.17.12.34.34,0,0,1,0,.17Zm.23-15.18a1.36,1.36,0,0,1-.28,1,2.08,2.08,0,0,1-2,0,1.92,1.92,0,0,1,0-2,1.45,1.45,0,0,1,1-.27,1.5,1.5,0,0,1,1,.26,1.35,1.35,0,0,1,.27,1" transform="translate(1.14 -1.08)"/><path class="cls-9" d="M687,219a3,3,0,0,1,0,.58.74.74,0,0,1-.15.31,1,1,0,0,1-.31.19,2.26,2.26,0,0,1-.46.15,4.34,4.34,0,0,1-.54.09,3.86,3.86,0,0,1-.58,0,4.48,4.48,0,0,1-1.51-.23,2.45,2.45,0,0,1-1-.71,2.83,2.83,0,0,1-.59-1.19,7.18,7.18,0,0,1-.18-1.71v-6.62H680a.34.34,0,0,1-.31-.2,1.35,1.35,0,0,1-.11-.66,2.25,2.25,0,0,1,0-.4,1.25,1.25,0,0,1,.08-.27.32.32,0,0,1,.13-.15.41.41,0,0,1,.19-.05h1.58v-2.69a.47.47,0,0,1,0-.17.4.4,0,0,1,.17-.13,1.14,1.14,0,0,1,.32-.08,3.86,3.86,0,0,1,.51,0,4,4,0,0,1,.52,0,1.14,1.14,0,0,1,.32.08.43.43,0,0,1,.16.13.34.34,0,0,1,.05.17v2.69h2.89a.35.35,0,0,1,.18.05.39.39,0,0,1,.13.15.86.86,0,0,1,.08.27,2.25,2.25,0,0,1,0,.4,1.33,1.33,0,0,1-.12.66.32.32,0,0,1-.3.2h-2.89v6.31A3.62,3.62,0,0,0,684,218a1.3,1.3,0,0,0,1.23.6,2,2,0,0,0,.51-.06l.4-.12.3-.12a.53.53,0,0,1,.23-.05l.12,0s.06.06.09.12a2.42,2.42,0,0,1,.05.24,1.94,1.94,0,0,1,0,.38" transform="translate(1.14 -1.08)"/><path class="cls-9" d="M699,219.88a.27.27,0,0,1-.11.23.61.61,0,0,1-.27.11,2.32,2.32,0,0,1-.52,0,2.43,2.43,0,0,1-.52,0,.61.61,0,0,1-.29-.11.32.32,0,0,1-.08-.23v-1.13a5.55,5.55,0,0,1-1.66,1.23,4.48,4.48,0,0,1-1.94.44,5.11,5.11,0,0,1-1.62-.24,3.52,3.52,0,0,1-1.24-.67,3.09,3.09,0,0,1-.79-1.09,3.56,3.56,0,0,1-.29-1.46,3.3,3.3,0,0,1,.4-1.67,3.21,3.21,0,0,1,1.12-1.17,5.4,5.4,0,0,1,1.79-.7,10.86,10.86,0,0,1,2.38-.23h1.57v-.89a4.5,4.5,0,0,0-.14-1.16,1.89,1.89,0,0,0-.45-.84,2,2,0,0,0-.8-.51,3.77,3.77,0,0,0-1.2-.17,4.47,4.47,0,0,0-1.38.19,6.49,6.49,0,0,0-1.07.41,7.39,7.39,0,0,0-.77.41,1.09,1.09,0,0,1-.46.18.35.35,0,0,1-.18-.05.39.39,0,0,1-.13-.15.61.61,0,0,1-.08-.26,1.79,1.79,0,0,1,0-.34,2.14,2.14,0,0,1,0-.5.74.74,0,0,1,.21-.34,2.69,2.69,0,0,1,.59-.39,6.6,6.6,0,0,1,.95-.41,9,9,0,0,1,1.19-.3,7.05,7.05,0,0,1,1.29-.13,6.93,6.93,0,0,1,2.08.28A3.47,3.47,0,0,1,698,209a3.14,3.14,0,0,1,.77,1.33,6.44,6.44,0,0,1,.24,1.85Zm-2.07-5.2h-1.78a6.43,6.43,0,0,0-1.48.15,3.16,3.16,0,0,0-1,.43,1.79,1.79,0,0,0-.61.68,2.07,2.07,0,0,0-.19.92,1.8,1.8,0,0,0,.56,1.4,2.19,2.19,0,0,0,1.57.53,2.87,2.87,0,0,0,1.51-.42,6.5,6.5,0,0,0,1.47-1.27Z" transform="translate(1.14 -1.08)"/><polygon class="cls-9" points="75.47 184.37 41.22 184.37 41.22 121.04 54.18 121.04 54.18 172.8 75.47 172.8 75.47 184.37"/><path class="cls-9" d="M115,185.45H103V179h-.16q-4.12,7.59-12.23,7.59-6,0-9.4-3.73t-3.43-9.95q0-13.17,14.15-15.2L103.07,156q0-7.42-7.29-7.42a23.34,23.34,0,0,0-14,4.82V142.92a29.28,29.28,0,0,1,7.24-2.64,34.52,34.52,0,0,1,8.36-1.15q17.56,0,17.56,19.3Zm-11.91-18.37V164l-7.46,1.06q-6.17.89-6.17,6.14a5.35,5.35,0,0,0,1.5,3.91A5.44,5.44,0,0,0,95,176.66a7.2,7.2,0,0,0,5.82-2.71,10.45,10.45,0,0,0,2.24-6.87" transform="translate(1.14 -1.08)"/><path class="cls-9" d="M165.24,180.29q0,12.59-6.62,19.49t-19.17,6.91q-8.3,0-13.15-2.6V192.34a23.45,23.45,0,0,0,12.79,4.06q6.42,0,9.94-3.73t3.53-10.13V179h-.16q-4.32,7.59-12.79,7.6a14.82,14.82,0,0,1-12.47-6.1q-4.62-6.09-4.62-16.34,0-11.48,5.14-18.24a16.17,16.17,0,0,1,13.51-6.75,12.18,12.18,0,0,1,11.23,6.36h.16v-5.26h12.68Zm-12.52-16.57v-3.57a11.66,11.66,0,0,0-2.3-7.31,7.21,7.21,0,0,0-6-3,7.56,7.56,0,0,0-6.62,3.62q-2.4,3.63-2.4,10.21,0,5.64,2.28,8.94a7.24,7.24,0,0,0,6.26,3.29,7.51,7.51,0,0,0,6.36-3.34,14.66,14.66,0,0,0,2.42-8.81" transform="translate(1.14 -1.08)"/><path class="cls-9" d="M214.87,185.45H202.24v-6.89H202q-4.69,8-12.55,8-14.28,0-14.28-19V140.23h12.63v26.06q0,9.57,6.9,9.58a6.56,6.56,0,0,0,5.45-2.63,11.28,11.28,0,0,0,2.05-7.13V140.23h12.63Z" transform="translate(1.14 -1.08)"/><path class="cls-9" d="M265.12,185.45H252.49V160.32q0-10.5-6.82-10.51a6.52,6.52,0,0,0-5.41,2.79,11.27,11.27,0,0,0-2.13,7.06v25.79H225.46V140.23h12.67v7.15h.16q4.53-8.25,13.2-8.25,13.63,0,13.63,18.63Z" transform="translate(1.14 -1.08)"/><path class="cls-9" d="M309.24,185.45h-12V179h-.16q-4.12,7.59-12.23,7.59-6,0-9.4-3.73T272,172.87q0-13.17,14.16-15.2L297.32,156q0-7.42-7.29-7.42a23.34,23.34,0,0,0-14,4.82V142.92a29.28,29.28,0,0,1,7.24-2.64,34.52,34.52,0,0,1,8.36-1.15q17.56,0,17.57,19.3Zm-11.92-18.37V164l-7.45,1.06q-6.18.89-6.18,6.14a5.35,5.35,0,0,0,1.5,3.91,5.45,5.45,0,0,0,4.07,1.52,7.2,7.2,0,0,0,5.82-2.71,10.4,10.4,0,0,0,2.24-6.87" transform="translate(1.14 -1.08)"/><path class="cls-10" d="M385.92,187.65H368.46l0-1.39s6.12-.69,6.7-6.79,4.68-42.37,6-44.75c.76-1.33,3.07-4.73,6.87-3l-6.51,47.83s-.57,4.8,1.33,5.57a14.27,14.27,0,0,0,3.05.91Z" transform="translate(1.14 -1.08)"/><path class="cls-10" d="M388.47,147l1.65-13.54s1.28.37,3.84,9.75,10.67,33.52,10.67,33.52L417,136s1.64-5.17,6.41-4c0,0,2.87-.72,5.05,8,1.7,6.86,2.87,19.15,2.87,19.15s3,20.72,3.11,21.52,1.2,3.62,2.55,4a6.69,6.69,0,0,1,2.74,1.51,1.34,1.34,0,0,1,.43,1h-17a1.27,1.27,0,0,1,1-1.58c1.32-.43,3.58-1.39,3.52-2.67s-2.93-22.45-2.93-22.45l-2.55-18.28L408.6,184.78a4.63,4.63,0,0,1-5,3.17c-3.35-.18-5.6-10-5.6-10Z" transform="translate(1.14 -1.08)"/><path class="cls-10" d="M471.12,178.25v7.05a21.27,21.27,0,0,1-17.05,1.24c-9.15-3.43-10.77-11.43-11.24-14.77s-.19-16.38,11.24-21.14c12.26-5.11,22.48,3,24.57,9.05a30.15,30.15,0,0,1,1.53,8.38v15.81s0,1.22,2.28,1.91a2.3,2.3,0,0,1,1.34,1.33H473.31v-21s-.95-7.9-7.34-10.09-13.62.85-15.62,6.38-1.56,13.71,4.69,17.71c4.17,2.67,9.89,1.53,15.13-1.23Z" transform="translate(1.14 -1.08)"/><path class="cls-10" d="M515.13,179.3l.09,7.24s-7.52-.19-9.62-.48-10.86-1.14-14.67-8.38c-4.35-8.27-2.76-18.19,3.72-23.91s15-6.57,22.48-1.62,7.81,14.1,7.81,14.1V189s-1.24,10.39-9.05,14.58a29.51,29.51,0,0,1-4.38,1.9s-1.81.1-1.91.57h-14v-3.33s.76-3.52,7-4,8.47.19,12.09-2.67,3.72-7.9,3.72-8.28V166.73s-.19-4.1-1.91-6.39S512,154.53,505,155.49c-9,1.21-9.53,8.66-9.62,11.9s2.42,7.78,5.14,9.53a17.49,17.49,0,0,0,9.05,2.38c4.67.09,5.53,0,5.53,0" transform="translate(1.14 -1.08)"/><path class="cls-10" d="M559.8,179.61l.09,7.24s-7.52-.19-9.62-.47-10.85-1.15-14.66-8.38c-4.36-8.28-2.77-18.2,3.71-23.91s14.95-6.58,22.48-1.62,7.81,14.1,7.81,14.1v22.76s-1.24,10.38-9.05,14.57a28.59,28.59,0,0,1-4.38,1.91s-1.81.09-1.91.57h-14v-3.33s.76-3.53,7.05-4,8.48.19,12.1-2.67,3.71-7.91,3.71-8.29V167s-.19-4.09-1.9-6.38-4.53-5.81-11.53-4.86c-9,1.22-9.52,8.67-9.62,11.91s2.42,7.77,5.15,9.52a17.22,17.22,0,0,0,9,2.38c4.68.1,5.53,0,5.53,0" transform="translate(1.14 -1.08)"/><path class="cls-10" d="M592.9,187.3H577s-.1-1.24.52-1.52a26.15,26.15,0,0,0,2.91-1.34c.71-.47,1.19-2.33,1.24-3.47s0-31,0-31,4,.81,5.38,3.91a16,16,0,0,1,1.14,6.43v20.95s.43,3.14,2.76,4c1.85.68,1.91,2.05,1.91,2.05" transform="translate(1.14 -1.08)"/><path class="cls-10" d="M581.78,135l0,6.77s2.34,4.29,6.34,4.53v-6.91s-.81-3.76-5.81-4.38Z" transform="translate(1.14 -1.08)"/><path class="cls-10" d="M653.15,187.16H637.71a1.39,1.39,0,0,1,1.31-1.77,4,4,0,0,0,3.1-3.33c-.07-1.09,0-32.1,0-32.1h6v5.72a11.3,11.3,0,0,1,6.14-5.34,14.17,14.17,0,0,1,7.43-.55c2.64.47,6.72,3.58,6.53,5.53v.55l-7-.27a12,12,0,0,0-7.09,1.62c-1.86,1.19-4.5,3.34-5.48,9.36V181.3s.48,2.91,1.9,3.52c2.4,1,2.56,1.45,2.56,1.45Z" transform="translate(1.14 -1.08)"/><path class="cls-10" d="M680.86,174.82,705.34,161a30.91,30.91,0,0,0-3-4.76,21.36,21.36,0,0,0-5.38-4.62,19.76,19.76,0,0,0-22.67,3.52,18.72,18.72,0,0,0-5.48,11.91,19.47,19.47,0,0,0,3.43,13.05c2,2.57,4.53,5.81,12.15,7.76,7.84,2,14.38-3.14,15.52-4.24s5.81-6.67,6.2-10.48l-.1-1.47-1.38,0a16.22,16.22,0,0,0-3.62,1.76,40.38,40.38,0,0,0-4.72,4.81,12.77,12.77,0,0,1-8.09,3.57,11.2,11.2,0,0,1-9.77-4.76,13.9,13.9,0,0,1-2-13.05,12,12,0,0,1,10.76-8.48,11.78,11.78,0,0,1,9.05,3.95l-11.1,6.2s-4.38,2.57-4.52,6.66c0,0,0,1.34.14,1.81s.14.62.14.62" transform="translate(1.14 -1.08)"/><path class="cls-10" d="M604.19,168.49c0-7.29,5.43-13.2,12.14-13.2s12.15,5.91,12.15,13.2-5.44,13.19-12.15,13.19-12.14-5.91-12.14-13.19m-6.58.14c0-10.73,8.38-19.43,18.72-19.43s18.72,8.7,18.72,19.43-8.38,19.43-18.72,19.43-18.72-8.7-18.72-19.43" transform="translate(1.14 -1.08)"/></g></svg>