<svg id="Capa_1" data-name="Capa 1" xmlns="http://www.w3.org/2000/svg" xmlns:xlink="http://www.w3.org/1999/xlink" viewBox="0 0 143.5 51.31"><defs><style>.cls-1,.cls-5{fill:none;}.cls-2{clip-path:url(#clip-path);}.cls-3,.cls-4{fill:#fff;}.cls-3{fill-rule:evenodd;}.cls-5{stroke:#fdd24b;stroke-miterlimit:3.86;stroke-width:2.16px;}</style><clipPath id="clip-path" transform="translate(37.09 93.52)"><rect class="cls-1" x="-37.09" y="-93.52" width="143.51" height="51.31"/></clipPath></defs><g class="cls-2"><path class="cls-3" d="M25.55-75.15,22.61-89l-.24-1.11a2.49,2.49,0,0,0-.22-1A4.59,4.59,0,0,0,21-91.21h-.2l.2-1,4.68-.49L28.3-79.15l5.92-9.75c.7-1.15,2.07-3.37,2.07-3.37h1.57s-1.5,2.11-2.24,3.33L27.24-75.15Z" transform="translate(37.09 93.52)"/><path class="cls-3" d="M49-75.3H39.66l.15-.76H40a2,2,0,0,0,1-.24,4.67,4.67,0,0,0,.44-1.38l1.48-7.43.18-1c0-.32-.34-.16-1-.21h-.14l.15-.76,4-.44s-.47,1.68-.64,2.47L44-77.69a5.92,5.92,0,0,0-.13,1.14.3.3,0,0,0,.25.32,6.87,6.87,0,0,0,1.21.07h1a11.24,11.24,0,0,0,1.2-.07c.28,0,1.16-1.91,1.16-1.91h.87Z" transform="translate(37.09 93.52)"/><path class="cls-3" d="M58.72-75.15H49.36l.15-.76h.15a2,2,0,0,0,1.05-.24,4.67,4.67,0,0,0,.44-1.38L52.63-85l.18-1c0-.32-.34-.16-1-.21h-.14l.15-.76,4-.44s-.47,1.68-.64,2.47L53.7-77.54a5.92,5.92,0,0,0-.13,1.14.3.3,0,0,0,.25.32A6.79,6.79,0,0,0,55-76h1a11.4,11.4,0,0,0,1.2-.07c.28,0,1.16-1.91,1.16-1.91h.87Z" transform="translate(37.09 93.52)"/><path class="cls-3" d="M35.05-75.2c.11-.12,2.11-9.81,2.11-9.81l.18-1.06c0-.32-.34-.15-1-.21h-.14l.15-.76,4-.44s-.47,1.68-.64,2.48l-1.48,7.42a22.31,22.31,0,0,1-.55,2.39,12.84,12.84,0,0,1-2.63,0" transform="translate(37.09 93.52)"/><path class="cls-3" d="M61.69-79.07l-.82,1.34c-.49.79-1.38,2.53-1.38,2.53H58.35l.94-1.6c.05-.1.24-.41.56-.93l5.83-9.48v-.64l1.52.19,2.23,10c.2.78.73,2.48.73,2.48s-2.85,0-2.72,0a15.13,15.13,0,0,0-.54-2.5l-.3-1.37Zm.5-.81h4.24l-1.13-5Z" transform="translate(37.09 93.52)"/><path class="cls-3" d="M23.36-63.6a11.05,11.05,0,0,1,4-6.8A11.62,11.62,0,0,1,35-72.77c2.9.06,5,.92,6.39,2.6s1.77,3.88,1.23,6.64a11.25,11.25,0,0,1-4,6.83,11.28,11.28,0,0,1-7.57,2.44q-4.38-.09-6.46-2.61T23.36-63.6m4.91,0c-.73,3.7.5,5.59,3.68,5.65s5-1.81,5.71-5.61-.45-5.54-3.53-5.6a5.12,5.12,0,0,0-3.8,1.44,7.51,7.51,0,0,0-2.06,4.12" transform="translate(37.09 93.52)"/><path class="cls-3" d="M61.7-54.1l-4.82-.1,1.94-9.89c.59-3-.24-4.56-2.49-4.61a4.17,4.17,0,0,0-3,1.19,5.47,5.47,0,0,0-1.68,3.11l-2,10.06-4.84-.09,3-15.35-1.15-.1L47-71.22l6.18-1.31-.56,3.37h0a8,8,0,0,1,6.56-3.14q6.06.12,4.64,7.39Z" transform="translate(37.09 93.52)"/><polygon class="cls-3" points="103.44 39.5 106.36 23.52 105.34 23.24 105.34 22.02 111.73 21.4 108.26 39.6 103.44 39.5"/><path class="cls-3" d="M70.57-77.49a2.86,2.86,0,0,1,1.14-1.78A3.38,3.38,0,0,1,73.89-80a2.52,2.52,0,0,1,1.89.76,2,2,0,0,1,.46,1.82,2.87,2.87,0,0,1-1.16,1.8,3.41,3.41,0,0,1-2.18.68A2.43,2.43,0,0,1,71-75.68a2,2,0,0,1-.45-1.81" transform="translate(37.09 93.52)"/><path class="cls-3" d="M9.73-76.25,8.46-69.76l2.69.05a5.53,5.53,0,0,0,3.3-.85,3.85,3.85,0,0,0,1.63-2.56q.59-3-3.82-3.08Zm-9.07,21L4.94-78.1l-1.39-.13.27-1.48,10.38-.14c2.62,0,4.58.6,5.86,1.64a4.11,4.11,0,0,1,1.39,4.28,6.37,6.37,0,0,1-2,3.48,9,9,0,0,1-3.93,2.11,6.06,6.06,0,0,1,3.91,2.08,4.79,4.79,0,0,1,.81,4A8,8,0,0,1,16.75-57a11.78,11.78,0,0,1-7,1.86ZM7.73-66.06,6.32-58.87l3.4.06a6,6,0,0,0,3.59-.91,4,4,0,0,0,1.75-2.68q.69-3.51-4.1-3.6Z" transform="translate(37.09 93.52)"/><path class="cls-3" d="M87.52-55c-.9.39-3.11,1.81-4.58,1.78q-5.61-.1-4.48-5.85l1.72-8.78-3,0,.7-3.57,3,.06.77-4,5.09-1.26-1,5.31,4.22.08-.7,3.56L85-67.8l-1.56,7.95c-.38,1.94.22,2.93,1.81,3a6.24,6.24,0,0,0,2.54-.46Z" transform="translate(37.09 93.52)"/><path class="cls-3" d="M93.11-70.09a13.91,13.91,0,0,1,3.41-1,17.79,17.79,0,0,1,3.61-.36c4.93.09,6.91,2.56,6,7.4L104-53.28l-4.61-.09L99.87-56A7.58,7.58,0,0,1,93.72-53a5,5,0,0,1-3.9-1.52A4.4,4.4,0,0,1,89-58.45q1-5.05,7.36-5.74l5.22-.57c.44-2.25.33-4.44-2.77-4.44a13.69,13.69,0,0,0-5.93.94Zm4.22,8.58q-3.19.33-3.65,2.65a1.85,1.85,0,0,0,.41,1.71,2.47,2.47,0,0,0,1.88.69,4.44,4.44,0,0,0,3.1-1.13,5,5,0,0,0,1.71-3l.27-1.34Z" transform="translate(37.09 93.52)"/><line class="cls-4" x1="37.84" y1="41.91" x2="143.5" y2="41.91"/><line class="cls-5" x1="37.84" y1="41.91" x2="143.5" y2="41.91"/><polygon class="cls-3" points="38.62 51.22 38.62 45.99 39.51 45.99 39.51 50.33 41.73 50.33 41.73 51.22 38.62 51.22"/><path class="cls-3" d="M9.47-42.3h-1l-.38-1.19H6.34L6-42.3H5l1.72-5.27h1ZM7.83-44.38l-.61-2-.6,2Z" transform="translate(37.09 93.52)"/><path class="cls-3" d="M14.69-44.24l.87.32a2.39,2.39,0,0,1-.67,1.3,1.73,1.73,0,0,1-1.16.41,1.72,1.72,0,0,1-1.4-.65,3.11,3.11,0,0,1-.62-2A3.27,3.27,0,0,1,12.33-47a1.79,1.79,0,0,1,1.45-.66,1.7,1.7,0,0,1,1.25.5,2.07,2.07,0,0,1,.52,1l-.88.25a1.16,1.16,0,0,0-.34-.66.86.86,0,0,0-.59-.23.94.94,0,0,0-.8.42A2.33,2.33,0,0,0,12.63-45a2.52,2.52,0,0,0,.3,1.42.92.92,0,0,0,.78.42.8.8,0,0,0,.61-.27,1.64,1.64,0,0,0,.37-.85" transform="translate(37.09 93.52)"/><path class="cls-3" d="M16.35-44.9a3.64,3.64,0,0,1,.28-1.55,2.14,2.14,0,0,1,.74-.91,2,2,0,0,1,1.12-.3,1.92,1.92,0,0,1,1.54.71,3,3,0,0,1,.6,2A3.07,3.07,0,0,1,20-42.87a1.86,1.86,0,0,1-1.51.66A1.89,1.89,0,0,1,17-42.86a3.07,3.07,0,0,1-.63-2m.91,0a2.15,2.15,0,0,0,.36,1.36,1.05,1.05,0,0,0,.87.46,1.06,1.06,0,0,0,.88-.45A2.28,2.28,0,0,0,19.71-45a2.24,2.24,0,0,0-.33-1.35,1.08,1.08,0,0,0-.89-.44,1.06,1.06,0,0,0-.88.45,2.19,2.19,0,0,0-.35,1.36" transform="translate(37.09 93.52)"/><polygon class="cls-3" points="58.64 51.22 58.64 45.95 59.51 45.95 61.33 49.47 61.33 45.95 62.16 45.95 62.16 51.22 61.26 51.22 59.47 47.78 59.47 51.22 58.64 51.22"/><path class="cls-3" d="M26-44l.87-.11c.09.68.42,1,1,1a1,1,0,0,0,.64-.2.64.64,0,0,0,.23-.51.51.51,0,0,0-.08-.31.6.6,0,0,0-.25-.21,8.2,8.2,0,0,0-.8-.27,2.63,2.63,0,0,1-.83-.36,1.56,1.56,0,0,1-.43-.52,1.66,1.66,0,0,1-.15-.7,1.45,1.45,0,0,1,.2-.77,1.25,1.25,0,0,1,.55-.52,1.94,1.94,0,0,1,.88-.18,1.69,1.69,0,0,1,1.22.42,1.59,1.59,0,0,1,.46,1.18l-.89,0a1,1,0,0,0-.26-.59.85.85,0,0,0-.56-.16.93.93,0,0,0-.56.14.44.44,0,0,0-.19.36.43.43,0,0,0,.18.36,2.55,2.55,0,0,0,.81.33,3.53,3.53,0,0,1,1,.4,1.31,1.31,0,0,1,.45.54,1.86,1.86,0,0,1,.16.81,1.61,1.61,0,0,1-.43,1.15,1.73,1.73,0,0,1-1.35.47c-1.08,0-1.69-.6-1.81-1.8" transform="translate(37.09 93.52)"/><polygon class="cls-3" points="68.6 51.22 68.6 46.84 67.29 46.84 67.29 45.95 70.8 45.95 70.8 46.84 69.49 46.84 69.49 51.22 68.6 51.22"/><path class="cls-3" d="M34.49-42.3v-5.27h1.88a2.8,2.8,0,0,1,1,.14,1.18,1.18,0,0,1,.5.49,1.63,1.63,0,0,1,.2.84,1.55,1.55,0,0,1-.3,1,1.39,1.39,0,0,1-.86.48,2,2,0,0,1,.47.44,5.26,5.26,0,0,1,.51.85l.54,1H37.4l-.65-1.14a6.43,6.43,0,0,0-.48-.78.65.65,0,0,0-.26-.22,1.21,1.21,0,0,0-.45-.06h-.18v2.2Zm.89-3H36a3.77,3.77,0,0,0,.77,0,.56.56,0,0,0,.27-.21.77.77,0,0,0,.1-.42.71.71,0,0,0-.1-.41.54.54,0,0,0-.28-.21,3.25,3.25,0,0,0-.72,0h-.7Z" transform="translate(37.09 93.52)"/><path class="cls-3" d="M39.14-47.57H40v2.85a7.66,7.66,0,0,0,0,.87.88.88,0,0,0,.28.54.87.87,0,0,0,.59.19.88.88,0,0,0,.51-.14.68.68,0,0,0,.27-.37,4.42,4.42,0,0,0,.07-1v-2.91h.89v2.77a6.83,6.83,0,0,1-.12,1.53,1.28,1.28,0,0,1-.52.77,1.83,1.83,0,0,1-1.07.29,2.06,2.06,0,0,1-1.08-.24,1.41,1.41,0,0,1-.57-.68,5.36,5.36,0,0,1-.17-1.63Z" transform="translate(37.09 93.52)"/><path class="cls-3" d="M46.63-44.24l.86.32a2.32,2.32,0,0,1-.67,1.3,1.71,1.71,0,0,1-1.16.41,1.75,1.75,0,0,1-1.4-.65,3.11,3.11,0,0,1-.62-2A3.22,3.22,0,0,1,44.27-47a1.77,1.77,0,0,1,1.45-.66,1.68,1.68,0,0,1,1.24.5,2.08,2.08,0,0,1,.53,1l-.89.25a1.09,1.09,0,0,0-.33-.66.88.88,0,0,0-.6-.23,1,1,0,0,0-.8.42A2.41,2.41,0,0,0,44.56-45a2.52,2.52,0,0,0,.3,1.42,1,1,0,0,0,.79.42.82.82,0,0,0,.61-.27,1.73,1.73,0,0,0,.37-.85" transform="translate(37.09 93.52)"/><polygon class="cls-3" points="86.55 51.22 86.55 46.84 85.24 46.84 85.24 45.95 88.75 45.95 88.75 46.84 87.44 46.84 87.44 51.22 86.55 51.22"/><path class="cls-3" d="M52.16-44.9a3.64,3.64,0,0,1,.28-1.55,2.09,2.09,0,0,1,.75-.91,2,2,0,0,1,1.11-.3,2,2,0,0,1,1.55.71,3,3,0,0,1,.59,2,3,3,0,0,1-.63,2.06,1.86,1.86,0,0,1-1.5.66,1.91,1.91,0,0,1-1.52-.65,3.07,3.07,0,0,1-.63-2m.92,0a2.21,2.21,0,0,0,.35,1.36,1.07,1.07,0,0,0,.88.46,1.05,1.05,0,0,0,.87-.45A2.27,2.27,0,0,0,55.53-45a2.23,2.23,0,0,0-.34-1.35,1.08,1.08,0,0,0-.88-.44,1.06,1.06,0,0,0-.89.45,2.2,2.2,0,0,0-.34,1.36" transform="translate(37.09 93.52)"/><path class="cls-3" d="M57.35-42.3v-5.27h1.88a2.76,2.76,0,0,1,1,.14,1.14,1.14,0,0,1,.51.49,1.74,1.74,0,0,1,.2.84,1.5,1.5,0,0,1-.31,1,1.39,1.39,0,0,1-.86.48,2.27,2.27,0,0,1,.48.44,7.34,7.34,0,0,1,.51.85l.54,1H60.26l-.65-1.14a6.91,6.91,0,0,0-.47-.78.67.67,0,0,0-.27-.22,1.21,1.21,0,0,0-.45-.06h-.18v2.2Zm.89-3h.66a3.82,3.82,0,0,0,.78,0,.49.49,0,0,0,.26-.21.77.77,0,0,0,.11-.42.71.71,0,0,0-.11-.41.51.51,0,0,0-.27-.21,3.43,3.43,0,0,0-.73,0h-.7Z" transform="translate(37.09 93.52)"/><path class="cls-3" d="M66-42.3H65l-.38-1.19H62.87l-.36,1.19h-.95l1.72-5.27h1Zm-1.63-2.08-.61-2-.6,2Z" transform="translate(37.09 93.52)"/><path class="cls-3" d="M68.39-47.57H70a2.48,2.48,0,0,1,.93.13,1.64,1.64,0,0,1,.58.46,2.39,2.39,0,0,1,.42.83,4.56,4.56,0,0,1,.15,1.27,4.18,4.18,0,0,1-.16,1.19,2.49,2.49,0,0,1-.4.8,1.5,1.5,0,0,1-.59.44,2.21,2.21,0,0,1-.88.15H68.39Zm.89.89v3.49H70a1.56,1.56,0,0,0,.62-.08.7.7,0,0,0,.32-.24,1.4,1.4,0,0,0,.21-.5,4.37,4.37,0,0,0,.08-.91,3.83,3.83,0,0,0-.09-.93,1.25,1.25,0,0,0-.25-.53.82.82,0,0,0-.43-.25,3.71,3.71,0,0,0-.73,0Z" transform="translate(37.09 93.52)"/><polygon class="cls-3" points="110.15 51.22 110.15 45.95 113.42 45.95 113.42 46.84 111.04 46.84 111.04 48 113.26 48 113.26 48.89 111.04 48.89 111.04 50.33 113.51 50.33 113.51 51.22 110.15 51.22"/><polygon class="cls-3" points="114.48 51.22 114.48 45.99 115.37 45.99 115.37 50.33 117.59 50.33 117.59 51.22 114.48 51.22"/><path class="cls-3" d="M83.17-47.57h.88v2.85a6.87,6.87,0,0,0,0,.87.88.88,0,0,0,.28.54.87.87,0,0,0,.59.19.88.88,0,0,0,.51-.14.68.68,0,0,0,.27-.37,4.42,4.42,0,0,0,.07-1v-2.91h.89v2.77a6.83,6.83,0,0,1-.12,1.53,1.28,1.28,0,0,1-.52.77,1.83,1.83,0,0,1-1.07.29,2.07,2.07,0,0,1-1.09-.24,1.45,1.45,0,0,1-.56-.68,5,5,0,0,1-.17-1.63Z" transform="translate(37.09 93.52)"/><path class="cls-3" d="M87.83-42.3v-5.27h1.88a2.76,2.76,0,0,1,1,.14,1.14,1.14,0,0,1,.51.49,1.74,1.74,0,0,1,.2.84,1.5,1.5,0,0,1-.31,1,1.39,1.39,0,0,1-.86.48,2.27,2.27,0,0,1,.48.44,7.34,7.34,0,0,1,.51.85l.54,1H90.74l-.65-1.14a6.91,6.91,0,0,0-.47-.78.61.61,0,0,0-.27-.22,1.21,1.21,0,0,0-.45-.06h-.18v2.2Zm.89-3h.66a3.82,3.82,0,0,0,.78,0,.56.56,0,0,0,.27-.21.87.87,0,0,0,.1-.42.8.8,0,0,0-.1-.41.58.58,0,0,0-.28-.21,3.43,3.43,0,0,0-.73,0h-.7Z" transform="translate(37.09 93.52)"/><path class="cls-3" d="M92.48-47.57h.89v2.85a7.66,7.66,0,0,0,0,.87.89.89,0,0,0,.29.54.85.85,0,0,0,.59.19.85.85,0,0,0,.5-.14.6.6,0,0,0,.27-.37,4.23,4.23,0,0,0,.08-1v-2.91H96v2.77a7,7,0,0,1-.11,1.53,1.32,1.32,0,0,1-.52.77,1.86,1.86,0,0,1-1.08.29,2.06,2.06,0,0,1-1.08-.24,1.34,1.34,0,0,1-.56-.68,5,5,0,0,1-.18-1.63Z" transform="translate(37.09 93.52)"/><path class="cls-3" d="M97.15-47.57h1.77a2.68,2.68,0,0,1,1,.13,1.1,1.1,0,0,1,.5.46,1.3,1.3,0,0,1,.2.74,1.36,1.36,0,0,1-.17.69,1.08,1.08,0,0,1-.45.45,1.15,1.15,0,0,1,.61.47,1.4,1.4,0,0,1,.22.81,1.63,1.63,0,0,1-.28,1,1.17,1.17,0,0,1-.67.49,7.63,7.63,0,0,1-1.25.06h-1.5Zm.89.88v1.22h.59c.35,0,.57,0,.66,0a.58.58,0,0,0,.36-.19.66.66,0,0,0,.13-.42.66.66,0,0,0-.11-.38.49.49,0,0,0-.25-.18,6.83,6.83,0,0,0-.87,0Zm0,2.1v1.4h.83a3.14,3.14,0,0,0,.7-.05.54.54,0,0,0,.26-.22.77.77,0,0,0,.1-.42.69.69,0,0,0-.11-.42.53.53,0,0,0-.3-.23,3,3,0,0,0-.76-.06Z" transform="translate(37.09 93.52)"/><path class="cls-3" d="M101.63-44.9a3.64,3.64,0,0,1,.28-1.55,2.14,2.14,0,0,1,.74-.91,2,2,0,0,1,1.12-.3,1.92,1.92,0,0,1,1.54.71,3,3,0,0,1,.6,2,3.07,3.07,0,0,1-.63,2.06,1.86,1.86,0,0,1-1.51.66,1.89,1.89,0,0,1-1.51-.65,3.07,3.07,0,0,1-.63-2m.91,0a2.15,2.15,0,0,0,.36,1.36,1.05,1.05,0,0,0,.87.46,1.06,1.06,0,0,0,.88-.45A2.28,2.28,0,0,0,105-45a2.24,2.24,0,0,0-.33-1.35,1.08,1.08,0,0,0-.89-.44,1.06,1.06,0,0,0-.88.45,2.19,2.19,0,0,0-.35,1.36m.75-3,.42-1.08h1l-.83,1.08Z" transform="translate(37.09 93.52)"/><path class="cls-3" d="M-14.06-71.45c-.36-12,.29-21.92,1.46-22.06S-10.2-84-9.84-71.95-10.12-50-11.29-49.88s-2.4-9.52-2.77-21.57" transform="translate(37.09 93.52)"/><path class="cls-3" d="M-5.46-63.65c3.13-2.73,6.09-4.51,6.61-4s-1.58,3.19-4.71,5.92-6.08,4.51-6.61,4,1.58-3.19,4.71-5.92" transform="translate(37.09 93.52)"/><path class="cls-3" d="M-24.33-67.41c-6.8-2.45-12.08-5.18-11.81-6.1s6,.32,12.8,2.77,12.08,5.18,11.81,6.1-6-.32-12.8-2.77" transform="translate(37.09 93.52)"/><path class="cls-3" d="M-37.09-85.66c0-.7,10.89-.88,24.27-.41S11.4-84.65,11.37-84s-10.89.89-24.27.42S-37.12-85-37.09-85.66" transform="translate(37.09 93.52)"/></g></svg>