<svg id="Capa_1" data-name="Capa 1" xmlns="http://www.w3.org/2000/svg" xmlns:xlink="http://www.w3.org/1999/xlink" viewBox="0 0 510.72 304.8"><defs><style>.cls-1,.cls-5,.cls-6{fill:none;}.cls-2{clip-path:url(#clip-path);}.cls-3{fill:#231f20;}.cls-3,.cls-4{fill-rule:evenodd;}.cls-4,.cls-7{fill:#3b9d9b;}.cls-5{stroke:#fff;stroke-width:2px;}.cls-5,.cls-6{stroke-miterlimit:3.86;}.cls-6{stroke:#3b9d9b;stroke-width:10.01px;}</style><clipPath id="clip-path" transform="translate(0 0)"><rect class="cls-1" width="510.72" height="304.8"/></clipPath></defs><g class="cls-2"><path class="cls-3" d="M33,235.27a2.33,2.33,0,0,1-1.11-.25,2.38,2.38,0,0,1-.8-.63,2.78,2.78,0,0,1-.48-.9,3.42,3.42,0,0,1-.17-1,4.66,4.66,0,0,1,.24-1.25c.16-.53.37-1.13.62-1.79s.53-1.36.83-2.08l.87-2.09c.29-.66.53-1.27.73-1.84s.34-1,.42-1.32.18-.8.3-1.3.26-1,.41-1.64.3-1.22.45-1.87.31-1.31.47-2c-.28.06-.63.12-1,.17l-1.31.14c-.67.06-1.32.15-2,.27s-1.3.25-2,.4l-2.09.49-2.33.52c-1.2.27-2.41.56-3.61.88a14.7,14.7,0,0,1-3.77.48,2,2,0,0,1-1.12-.32,3.8,3.8,0,0,0-1.15-.46,23.52,23.52,0,0,0-1.14,2.06c-.36.74-.69,1.49-1,2.26s-.57,1.54-.81,2.3-.45,1.46-.63,2.12a9.86,9.86,0,0,0-.26,1.4c-.07.58-.14,1.16-.2,1.75s-.12,1.16-.18,1.71-.12,1-.18,1.29a2.69,2.69,0,0,1-.36.89,3.85,3.85,0,0,1-.66.8,3.67,3.67,0,0,1-.88.59,2.25,2.25,0,0,1-1,.23,2,2,0,0,1-1.38-.5,3.67,3.67,0,0,1-.84-1.24,6.25,6.25,0,0,1-.44-1.61,11.85,11.85,0,0,1-.12-1.6,16.51,16.51,0,0,1,.46-3.81,29.06,29.06,0,0,1,1.22-4,40.56,40.56,0,0,1,1.81-4.11q1-2.05,2.24-4.11c.67-1.23,1.49-2.65,2.48-4.25s2.08-3.26,3.3-5a63,63,0,0,1,3.95-5,39.34,39.34,0,0,1,4.41-4.36,23,23,0,0,1,4.71-3.09,10.81,10.81,0,0,1,4.79-1.18,8.65,8.65,0,0,1,4.18.91,7.06,7.06,0,0,1,2.67,2.44,10.17,10.17,0,0,1,1.4,3.59,22.28,22.28,0,0,1,.41,4.34,35.19,35.19,0,0,1-.26,4.16c-.17,1.43-.38,2.83-.63,4.19s-.52,2.69-.82,3.95-.55,2.41-.79,3.44l-1.06,4.1c0,.12-.12.36-.23.72s-.25.8-.42,1.32-.36,1.06-.57,1.65-.42,1.18-.63,1.75l-.61,1.59c-.19.48-.35.87-.5,1.17l0,0c-.14.53-.29,1.06-.45,1.6a5.56,5.56,0,0,1-.66,1.46A3.1,3.1,0,0,1,33,235.27m1.54-37.76a7.06,7.06,0,0,0-2.7.56,14,14,0,0,0-2.63,1.46,19.58,19.58,0,0,0-2.52,2.11c-.82.81-1.59,1.63-2.32,2.48s-1.43,1.69-2.07,2.54S21,208.31,20.52,209l-.32.47q-.19.28-.39.63c-.13.23-.25.47-.37.73s-.23.47-.31.67h3.11a35.68,35.68,0,0,0,3.86-.24c1.45-.16,2.88-.35,4.3-.57s2.72-.45,3.9-.68l2.69-.53a8.1,8.1,0,0,0,.22-1c.07-.44.14-.94.2-1.48s.1-1.12.13-1.73.05-1.24.05-1.89,0-1.12-.06-1.79a7.59,7.59,0,0,0-.36-1.92,3.83,3.83,0,0,0-.92-1.52,2.37,2.37,0,0,0-1.74-.62" transform="translate(0 0)"/><path class="cls-3" d="M57.61,195.82c.06-.68.14-1.42.24-2.23a12.18,12.18,0,0,1,.48-2.23,5.15,5.15,0,0,1,.89-1.7,1.78,1.78,0,0,1,1.43-.68,3.68,3.68,0,0,1,1.07.18,5.11,5.11,0,0,1,1.12.5,3.32,3.32,0,0,1,.89.77,1.55,1.55,0,0,1,.36,1A2.09,2.09,0,0,1,64,192c-.06.21-.11.42-.15.62l-7.54,30.21q-.45,1.81-.75,3.45c-.2,1.1-.36,2-.46,2.7v.73a17.73,17.73,0,0,1-.12,2,8.65,8.65,0,0,1-.45,2,4.27,4.27,0,0,1-.92,1.54,2,2,0,0,1-1.52.62,2.82,2.82,0,0,1-1.42-.35,3.14,3.14,0,0,1-1-.89,3.61,3.61,0,0,1-.58-1.16,4.15,4.15,0,0,1-.18-1.16,9.7,9.7,0,0,1,.09-1.19c.06-.47.14-1,.23-1.48s.18-1,.29-1.54.2-1,.3-1.34Z" transform="translate(0 0)"/><path class="cls-3" d="M68.5,225.56a25.8,25.8,0,0,1,.57-5.27c.38-1.82.79-3.56,1.21-5.23a7.56,7.56,0,0,1-1.6-.24,6.69,6.69,0,0,1-1.48-.57,3.53,3.53,0,0,1-1.08-.89,1.9,1.9,0,0,1-.42-1.22,2.76,2.76,0,0,1,.12-.7,4.15,4.15,0,0,1,.34-.83,2.3,2.3,0,0,1,.59-.69,1.28,1.28,0,0,1,.81-.29h4a.77.77,0,0,0,.78-.49,6.65,6.65,0,0,0,.33-1c.26-1.17.51-2.18.74-3s.43-1.58.59-2.17.28-1.08.37-1.45a3.53,3.53,0,0,0,.14-.89c0-.26,0-.51,0-.76s0-.57,0-1v-.3a6.33,6.33,0,0,1,0-.64,5.91,5.91,0,0,1,.28-1.11,2.83,2.83,0,0,1,.67-1.09,1.84,1.84,0,0,1,1.41-.51,2.72,2.72,0,0,1,1.39.33,2.8,2.8,0,0,1,.93.88,3.82,3.82,0,0,1,.55,1.23,5.58,5.58,0,0,1,.18,1.39,5.66,5.66,0,0,1-.15,1.36l-2.2,8.44c1.08-.18,2-.35,2.89-.51l2.53-.48c.93-.19,1.73-.36,2.4-.52l1.74-.4,1.22-.28a4,4,0,0,1,.83-.1,6.65,6.65,0,0,1,1,.07,3.06,3.06,0,0,1,.87.26,1.62,1.62,0,0,1,.62.51,1.48,1.48,0,0,1,.24.88,2.77,2.77,0,0,1-.29,1.28,3.17,3.17,0,0,1-.74,1,3.68,3.68,0,0,1-1,.67,5.5,5.5,0,0,1-1.15.37c-.32.06-.74.16-1.25.28l-1.69.39-1.91.45-1.93.48-2.37.61c-.65.16-1.21.28-1.67.36l-1.13.18a5.46,5.46,0,0,1-.71.06c-.38,1.14-.72,2.27-1,3.38s-.51,2.13-.71,3.09-.33,1.81-.42,2.56a15.55,15.55,0,0,0-.13,1.76,7.86,7.86,0,0,0,.15,1.56,3.58,3.58,0,0,0,.51,1.28,2.56,2.56,0,0,0,1,.86,3.4,3.4,0,0,0,1.55.31,6.32,6.32,0,0,0,3.14-.87,15,15,0,0,0,2.94-2.22,26.84,26.84,0,0,0,2.65-2.94c.84-1.06,1.61-2.08,2.31-3a1.09,1.09,0,0,1,.93-.55,1.53,1.53,0,0,1,.44.07,1.67,1.67,0,0,1,.5.21,1.38,1.38,0,0,1,.41.39,1,1,0,0,1,.16.57,1.6,1.6,0,0,1,0,.36A17,17,0,0,1,89,224.91q-1,1.88-2.07,3.78a6.15,6.15,0,0,1-1,1.3,13.56,13.56,0,0,1-1.28,1.22c-.46.39-.94.76-1.44,1.12s-1,.66-1.42.94a7.25,7.25,0,0,1-2.5,1,13.5,13.5,0,0,1-2.63.27,8,8,0,0,1-3.48-.71,7.25,7.25,0,0,1-2.56-1.93A8.27,8.27,0,0,1,69,229.05a11,11,0,0,1-.54-3.49" transform="translate(0 0)"/><path class="cls-3" d="M97.11,223.38a22.4,22.4,0,0,1,1.41-3.9A24.63,24.63,0,0,1,101,215.3a30.29,30.29,0,0,1,3.7-4.13,32.09,32.09,0,0,1,5-3.77,7.44,7.44,0,0,1,1.39-.58,7,7,0,0,1,1.93-.38,4.08,4.08,0,0,1,3.16-1.27,6.54,6.54,0,0,1,4,1.19,9.37,9.37,0,0,1,2.67,3.24c.22.45.42.88.61,1.3a9.24,9.24,0,0,1,.49,1.34,12.92,12.92,0,0,1,.31,1.53,12.62,12.62,0,0,1,.12,1.84,16.69,16.69,0,0,1-.75,4.85,22.13,22.13,0,0,1-2.14,4.82,27.07,27.07,0,0,1-3.36,4.51,28,28,0,0,1-4.39,3.88,13.25,13.25,0,0,1-3.6,1.82,14.2,14.2,0,0,1-4.42.65,11.89,11.89,0,0,1-4-.62,7.52,7.52,0,0,1-2.83-1.76A7.19,7.19,0,0,1,97.13,231a10.75,10.75,0,0,1-.56-3.55,17,17,0,0,1,.54-4.08m5,.4a10.09,10.09,0,0,0-.26,1.31,9.84,9.84,0,0,0-.07,1.19,6.46,6.46,0,0,0,.25,1.85,3.77,3.77,0,0,0,.83,1.48,4,4,0,0,0,1.44,1,5.61,5.61,0,0,0,2.09.34,8.23,8.23,0,0,0,4.27-1.16,14,14,0,0,0,3.51-2.91,18.41,18.41,0,0,0,2.58-3.75,17.31,17.31,0,0,0,1.46-3.7c.18-.7.34-1.36.47-2a8.41,8.41,0,0,0,.2-1.71,3.78,3.78,0,0,0-.29-1.47c-.19-.45-.44-1-.74-1.52-.18-.34-.36-.7-.54-1.07s-.34-.74-.48-1.1a4.82,4.82,0,0,1-.52.74,2.4,2.4,0,0,1-.81.57,7.41,7.41,0,0,1-1.48.47,21.08,21.08,0,0,1-2.44.36,8,8,0,0,0-2,1,15.51,15.51,0,0,0-2,1.62,25.83,25.83,0,0,0-1.87,2,22.78,22.78,0,0,0-1.59,2.22,20.78,20.78,0,0,0-1.24,2.22,9.47,9.47,0,0,0-.74,2" transform="translate(0 0)"/><path class="cls-3" d="M130.16,229.6a1.51,1.51,0,0,1,.44.06l.44.13a5.25,5.25,0,0,0,.54.14,4.11,4.11,0,0,0,.78.06,18.72,18.72,0,0,0,3.16-.3,26.06,26.06,0,0,0,3.27-.79,14.28,14.28,0,0,0,2.64-1.1c.73-.41,1.15-.84,1.25-1.28a2.64,2.64,0,0,0,.09-.63,1.36,1.36,0,0,0-.5-1A6.38,6.38,0,0,0,141,224a17.67,17.67,0,0,0-1.63-.79l-1.63-.66-1-.42a10.36,10.36,0,0,1-1.54-.74,8.74,8.74,0,0,1-1.4-1,6.21,6.21,0,0,1-1.15-1.34,5.65,5.65,0,0,1-.74-1.77,8.45,8.45,0,0,1-.19-.84,5.14,5.14,0,0,1-.08-.91,4,4,0,0,1,.53-1.79,9.59,9.59,0,0,1,1.42-2,15.33,15.33,0,0,1,2-1.9,12.23,12.23,0,0,1,2.36-1.51c.61-.42,1.19-.81,1.75-1.15a12.51,12.51,0,0,1,1.71-.87,12.24,12.24,0,0,1,1.74-.58,8.29,8.29,0,0,1,1.89-.21c.6,0,1.26,0,2,.09a7.18,7.18,0,0,1,1.93.43,3.63,3.63,0,0,1,1.46,1,2.49,2.49,0,0,1,.59,1.73,5.55,5.55,0,0,1-.09.87,5.35,5.35,0,0,1-.3,1.09,3.74,3.74,0,0,1-.51.93.9.9,0,0,1-.73.4,2.19,2.19,0,0,1-1.14-.27,6,6,0,0,1-.82-.59,8.45,8.45,0,0,0-.75-.59,1.68,1.68,0,0,0-1-.27,6.09,6.09,0,0,0-1.61.25,15.17,15.17,0,0,0-1.89.7,16.26,16.26,0,0,0-1.88,1,16.08,16.08,0,0,0-1.66,1.17,7.44,7.44,0,0,0-1.19,1.2,1.8,1.8,0,0,0-.45,1.07,1.14,1.14,0,0,0,.33.84,3,3,0,0,0,.84.57c.45.24.95.48,1.53.73l1.73.72,1.7.72c.56.24,1,.47,1.44.67s1,.55,1.46.83a5.22,5.22,0,0,1,1.1.89,3.43,3.43,0,0,1,.69,1.08,3.84,3.84,0,0,1,.24,1.42,5.12,5.12,0,0,1-.06.78c0,.26-.1.57-.18.91a6.85,6.85,0,0,1-.31,1.05c-.15.41-.32.8-.49,1.19a9.54,9.54,0,0,1-.52,1.06,2.5,2.5,0,0,1-.46.62,16.13,16.13,0,0,1-2.77,2,25,25,0,0,1-6.8,2.79,13.65,13.65,0,0,1-3.18.42,5.19,5.19,0,0,1-1.6-.28,6.8,6.8,0,0,1-1.61-.76,5,5,0,0,1-1.24-1.07,1.9,1.9,0,0,1-.5-1.2,1.61,1.61,0,0,1,.18-.68,3.19,3.19,0,0,1,.46-.69,3,3,0,0,1,.58-.55,1.06,1.06,0,0,1,.59-.22" transform="translate(0 0)"/><path class="cls-3" d="M191.23,200.8a9.77,9.77,0,0,0-.07-1.28c0-.37-.11-.73-.17-1.06s-.11-.66-.16-1a6.79,6.79,0,0,1-.08-1,7.88,7.88,0,0,1,.14-1.47,4.09,4.09,0,0,1,.45-1.26,2.59,2.59,0,0,1,.86-.91,2.53,2.53,0,0,1,1.39-.34,3.31,3.31,0,0,1,1.93.51,3.44,3.44,0,0,1,1.11,1.31,5.89,5.89,0,0,1,.53,1.81,15.09,15.09,0,0,1,.14,2c0,.58-.06,1.48-.17,2.71s-.23,2.75-.35,4.58-.23,4-.34,6.37-.17,5.07-.17,8q0,1.38.12,3.09a20.71,20.71,0,0,0,.48,3.24,10.25,10.25,0,0,0,1,2.7,3,3,0,0,0,1.78,1.49,45.78,45.78,0,0,0,5.08-5.61,69.52,69.52,0,0,0,4.18-6.09c1.24-2.05,2.37-4.06,3.37-6s1.91-3.77,2.72-5.4,1.45-3,2.06-4.33,1.17-2.49,1.66-3.6.93-2.13,1.3-3.09.71-1.87,1-2.76q.12-.3.39-.87a2.5,2.5,0,0,1,.87-1,4.35,4.35,0,0,1,2.51-.57,2.14,2.14,0,0,1,1.54.47,1.74,1.74,0,0,1,.48,1.31c0,.2,0,.44,0,.71a2,2,0,0,1-.16.74q-.71,1.83-1.84,4.2c-.77,1.58-1.56,3.25-2.39,5s-1.59,3.37-2.44,5.11-1.71,3.45-2.59,5.13-1.78,3.29-2.67,4.82-1.77,3-2.64,4.24-1.81,2.62-3.13,4.42-3.09,3.95-5.28,6.47c-.34.38-.68.74-1,1.1a8.75,8.75,0,0,1-1.08.95,5.74,5.74,0,0,1-1.24.68,4,4,0,0,1-1.45.25,4.25,4.25,0,0,1-2.11-.51,6.63,6.63,0,0,1-1.61-1.28A8.7,8.7,0,0,1,194,233c-.34-.62-.65-1.22-.94-1.81a14.74,14.74,0,0,1-.92-2.38,24.24,24.24,0,0,1-.61-2.7c-.16-.93-.29-1.89-.37-2.86s-.12-1.94-.12-2.88c0-.12,0-.48,0-1.07s0-1.36,0-2.29,0-2,.06-3.18,0-2.43.06-3.73,0-2.62.05-4,0-2.66,0-3.9Z" transform="translate(0 0)"/><path class="cls-3" d="M225.31,229.42c.31-1.17.67-2.53,1.09-4.07l1.34-4.92q.7-2.6,1.43-5.31t1.36-5.27a1.73,1.73,0,0,1,.21-.41,2.62,2.62,0,0,1,.51-.57,3,3,0,0,1,.85-.5,3.16,3.16,0,0,1,1.21-.21,4.62,4.62,0,0,1,1,.1,3.13,3.13,0,0,1,.86.32,1.7,1.7,0,0,1,.6.56,1.44,1.44,0,0,1,.23.8v.19a.64.64,0,0,1,0,.2l-.85,3.19q-1.41,5.37-2.88,10.77t-2.85,10.82a4.24,4.24,0,0,1-.18.46,2.61,2.61,0,0,1-.33.54,1.84,1.84,0,0,1-.51.45,1.37,1.37,0,0,1-.72.18,2.94,2.94,0,0,1-1.39-.31,3.56,3.56,0,0,1-1-.8,3.38,3.38,0,0,1-.63-1.06,3.13,3.13,0,0,1-.21-1.08v-.27a.79.79,0,0,1,.06-.28Zm7.87-31.21a9.46,9.46,0,0,1,.55-1.54,4,4,0,0,1,1.38-1.63,7,7,0,0,1,1.18-.5,3.63,3.63,0,0,1,1-.22,1.09,1.09,0,0,1,.61.21,3.67,3.67,0,0,1,.56.45,6.15,6.15,0,0,1,.57.66,1.07,1.07,0,0,1,1,.55,2.66,2.66,0,0,1,.23,1.14,4,4,0,0,1-.09.88l-.15.63a2.74,2.74,0,0,1-.69,1.16,5.89,5.89,0,0,1-1.18.91,6.49,6.49,0,0,1-1.39.58,4.59,4.59,0,0,1-1.26.21,2,2,0,0,1-1.07-.24,4,4,0,0,1-.95-1,1.83,1.83,0,0,1-.38-.71,2.69,2.69,0,0,1-.05-.44,3.51,3.51,0,0,1,.05-.59c0-.17.06-.33.1-.49" transform="translate(0 0)"/><path class="cls-3" d="M249.87,195.82c.06-.68.14-1.42.24-2.23a12.18,12.18,0,0,1,.48-2.23,5.15,5.15,0,0,1,.89-1.7,1.78,1.78,0,0,1,1.43-.68,3.68,3.68,0,0,1,1.07.18,5.11,5.11,0,0,1,1.12.5,3.32,3.32,0,0,1,.89.77,1.55,1.55,0,0,1,.36,1,2.09,2.09,0,0,1-.09.56c-.06.21-.11.42-.15.62l-7.54,30.21q-.45,1.81-.75,3.45c-.2,1.1-.36,2-.46,2.7v.73a17.73,17.73,0,0,1-.12,2,8.65,8.65,0,0,1-.45,2,4.27,4.27,0,0,1-.92,1.54,2,2,0,0,1-1.52.62,2.82,2.82,0,0,1-1.42-.35,3.14,3.14,0,0,1-1-.89,3.61,3.61,0,0,1-.58-1.16,4.15,4.15,0,0,1-.18-1.16,9.7,9.7,0,0,1,.09-1.19c.06-.47.14-1,.23-1.48s.18-1,.29-1.54.2-1,.3-1.34Z" transform="translate(0 0)"/><path class="cls-3" d="M265.4,195.82c.06-.68.14-1.42.24-2.23a12.17,12.17,0,0,1,.49-2.23,5,5,0,0,1,.89-1.7,1.78,1.78,0,0,1,1.43-.68,3.68,3.68,0,0,1,1.07.18,5,5,0,0,1,1.11.5,3.18,3.18,0,0,1,.89.77,1.51,1.51,0,0,1,.37,1,2.09,2.09,0,0,1-.09.56c-.06.21-.11.42-.16.62l-7.53,30.21c-.31,1.21-.56,2.36-.76,3.45s-.35,2-.45,2.7v.73a17.73,17.73,0,0,1-.12,2,8.65,8.65,0,0,1-.45,2,4.27,4.27,0,0,1-.92,1.54,2,2,0,0,1-1.53.62,2.78,2.78,0,0,1-1.41-.35,3.18,3.18,0,0,1-1-.89,3.8,3.8,0,0,1-.57-1.16,4.15,4.15,0,0,1-.18-1.16,9.7,9.7,0,0,1,.09-1.19c.06-.47.13-1,.22-1.48s.19-1,.29-1.54.2-1,.3-1.34Z" transform="translate(0 0)"/><path class="cls-3" d="M286.64,233.64a12.68,12.68,0,0,1,.21-2.1,18.24,18.24,0,0,0,.21-3c-.66.48-1.4,1.06-2.2,1.72s-1.64,1.3-2.5,1.9a19.48,19.48,0,0,1-2.58,1.52,5.63,5.63,0,0,1-2.4.62,5.43,5.43,0,0,1-1.72-.27,4.47,4.47,0,0,1-1.39-.73,8.81,8.81,0,0,1-2.3-2.53,6,6,0,0,1-.71-3,9.5,9.5,0,0,1,.13-1.57c.1-.54.23-1.17.41-1.87a26.34,26.34,0,0,1,3.94-8.82,26.94,26.94,0,0,1,6.92-6.92,8.5,8.5,0,0,1,3.19-1.43,16.47,16.47,0,0,1,3.17-.32,15,15,0,0,1,1.55.09l1.56.18c.46-.1.84-.17,1.13-.21a6.77,6.77,0,0,1,.92-.06,4.16,4.16,0,0,1,1.51.24,2.46,2.46,0,0,1,1.49,1.58,3.71,3.71,0,0,1,.16,1.1,4.62,4.62,0,0,1-.24,1.5l-.48,1.43-4,15.89c-.08.87-.15,1.66-.21,2.38a10.23,10.23,0,0,1-.36,2l-.23.68a2.71,2.71,0,0,1-.44.79,2.76,2.76,0,0,1-.75.64,2.17,2.17,0,0,1-1.18.28,7.37,7.37,0,0,1-1.49-.12,2.4,2.4,0,0,1-.86-.35,1,1,0,0,1-.39-.54,2.78,2.78,0,0,1-.09-.74m-10-9.11a11.69,11.69,0,0,0-.26,1.21,9.14,9.14,0,0,0-.14,1.56,4.23,4.23,0,0,0,.25,1.47,1,1,0,0,0,1,.64,5.16,5.16,0,0,0,2.37-.55,11.07,11.07,0,0,0,2.06-1.35c.87-.7,1.75-1.49,2.64-2.36a36.73,36.73,0,0,0,2.54-2.76,27.38,27.38,0,0,0,2.11-3,12.5,12.5,0,0,0,1.34-3,16.65,16.65,0,0,0,.41-2,14.57,14.57,0,0,0,.16-2.05,1.77,1.77,0,0,0-.18-.77.69.69,0,0,0-.69-.38,8.24,8.24,0,0,0-3,.57,13.82,13.82,0,0,0-2.88,1.54,17,17,0,0,0-2.64,2.28,22.66,22.66,0,0,0-2.28,2.8,21.58,21.58,0,0,0-1.76,3.08,18.17,18.17,0,0,0-1.13,3.09" transform="translate(0 0)"/><path class="cls-3" d="M363.32,221.42a9.19,9.19,0,0,1-1.28,4.47,13.54,13.54,0,0,1-4.09,4.28c-.58.4-1.29.84-2.12,1.31s-1.74,1-2.72,1.43-2,1-3.07,1.4-2.16.85-3.26,1.2-2.16.61-3.21.83a15,15,0,0,1-2.95.31,6,6,0,0,1-1.2-.1,2.85,2.85,0,0,1-.92-.38,3.5,3.5,0,0,1-.81-.75,13.66,13.66,0,0,1-.84-1.21,5.24,5.24,0,0,1-3.14,1.06h-.84a.73.73,0,0,1-.46-.17,1.83,1.83,0,0,1-.37-.41,1.87,1.87,0,0,1-.26-.53,1.81,1.81,0,0,1-.09-.55,9.82,9.82,0,0,1,.44-2.94c.29-.94.63-1.87,1-2.79q.84-2.56,1.72-5.39t1.68-5.65q.82-2.84,1.56-5.59c.49-1.84.95-3.59,1.37-5.23l.84-3.5c0-.06,0-.23,0-.52s0-.58-.07-.91-.06-.64-.08-.92l0-.4.15-.51,0,0a10.85,10.85,0,0,1,.43-1.23,6.9,6.9,0,0,1,.66-1.3,4.81,4.81,0,0,1,.86-1,1.52,1.52,0,0,1,1-.41c.34,0,.78,0,1.31.08s1,.07,1.43.07a5.68,5.68,0,0,0,.59,0,4.65,4.65,0,0,0,.72-.15c.3-.08.68-.2,1.15-.35l1.85-.61c1.15-.41,2.2-.74,3.16-1s1.86-.5,2.71-.67,1.68-.29,2.49-.37,1.63-.13,2.47-.13a15.57,15.57,0,0,1,3.09.31,8.27,8.27,0,0,1,2.65,1,5.21,5.21,0,0,1,1.86,1.78,4.9,4.9,0,0,1,.69,2.66,8.6,8.6,0,0,1-1.41,4.83,15.52,15.52,0,0,1-4,4,33.92,33.92,0,0,1-6.22,3.42q-3.63,1.59-8.1,3.12a50.23,50.23,0,0,1,6.14,1.28,18.32,18.32,0,0,1,4.26,1.74,7.25,7.25,0,0,1,2.51,2.26,5.24,5.24,0,0,1,.81,2.89m-10.25-2.77-1.1-.21-1.87-.33-2.31-.38-2.35-.39-2-.38c-.61-.12-1.06-.22-1.34-.3q-1.14,3.71-2,7.1c-.58,2.26-1.15,4.54-1.74,6.83l2,.21,1.23.11.61,0a20.12,20.12,0,0,0,2.66-.46c1-.24,2-.53,3-.88s2.08-.76,3.15-1.24,2.11-1,3.13-1.52a11.62,11.62,0,0,0,1.21-.87,8.19,8.19,0,0,0,1.15-1.13,6.61,6.61,0,0,0,.84-1.31,3.31,3.31,0,0,0,.33-1.42,2.56,2.56,0,0,0-1.26-2.1,9.62,9.62,0,0,0-3.29-1.37m-9.53-7c1.13-.36,2.31-.78,3.56-1.28s2.53-1,3.84-1.61,2.66-1.2,4-1.85l4.06-2h0a10.13,10.13,0,0,0,1.43-1,8.59,8.59,0,0,0,1.27-1.21,6.35,6.35,0,0,0,.9-1.35,3.22,3.22,0,0,0,.35-1.41,2.11,2.11,0,0,0-.21-.9,2.27,2.27,0,0,0-.66-.81,3.44,3.44,0,0,0-1.2-.58,6.74,6.74,0,0,0-1.82-.21,17.84,17.84,0,0,0-3.41.38,33.61,33.61,0,0,0-3.68,1,21.41,21.41,0,0,0-3.16,1.27,5,5,0,0,0-1.84,1.32,3.67,3.67,0,0,0-.26.67c-.11.34-.23.71-.38,1.13s-.28.81-.43,1.19a3.51,3.51,0,0,1-.44.84c0,.2-.12.51-.24.92s-.27.9-.44,1.46-.36,1.19-.57,1.87-.43,1.4-.65,2.14" transform="translate(0 0)"/><path class="cls-3" d="M369.58,223.38a22.31,22.31,0,0,1,1.4-3.9,24.71,24.71,0,0,1,2.49-4.18,30.87,30.87,0,0,1,3.69-4.13,32.09,32.09,0,0,1,5-3.77,8.08,8.08,0,0,1,1.39-.58,7,7,0,0,1,1.93-.38,4.11,4.11,0,0,1,3.17-1.27,6.49,6.49,0,0,1,4,1.19,9.16,9.16,0,0,1,2.67,3.24c.22.45.43.88.62,1.3a9.22,9.22,0,0,1,.48,1.34,12.87,12.87,0,0,1,.32,1.53,12.62,12.62,0,0,1,.12,1.84,16.69,16.69,0,0,1-.75,4.85,22.62,22.62,0,0,1-2.14,4.82,27.14,27.14,0,0,1-3.37,4.51,28,28,0,0,1-4.38,3.88,13.17,13.17,0,0,1-3.61,1.82,14.16,14.16,0,0,1-4.42.65,11.83,11.83,0,0,1-4-.62,7.56,7.56,0,0,1-2.84-1.76,7.44,7.44,0,0,1-1.69-2.75,10.75,10.75,0,0,1-.55-3.55,17,17,0,0,1,.54-4.08m5,.4a10.09,10.09,0,0,0-.26,1.31,9.91,9.91,0,0,0-.08,1.19,6.46,6.46,0,0,0,.26,1.85,3.65,3.65,0,0,0,.83,1.48,3.94,3.94,0,0,0,1.43,1,5.63,5.63,0,0,0,2.1.34,8.17,8.17,0,0,0,4.26-1.16,14.19,14.19,0,0,0,3.52-2.91,19.25,19.25,0,0,0,2.58-3.75,17.31,17.31,0,0,0,1.46-3.7c.18-.7.34-1.36.47-2a8.35,8.35,0,0,0,.19-1.71,3.77,3.77,0,0,0-.28-1.47c-.2-.45-.44-1-.74-1.52-.18-.34-.37-.7-.55-1.07s-.34-.74-.48-1.1a4.79,4.79,0,0,1-.51.74,2.36,2.36,0,0,1-.82.57,7.29,7.29,0,0,1-1.47.47,21.3,21.3,0,0,1-2.45.36,8.22,8.22,0,0,0-2,1,15.44,15.44,0,0,0-2,1.62,24,24,0,0,0-1.87,2,22.91,22.91,0,0,0-1.6,2.22,25,25,0,0,0-1.24,2.22,9.4,9.4,0,0,0-.73,2" transform="translate(0 0)"/><path class="cls-3" d="M423.31,210.18a6,6,0,0,0-2.26.49,15.48,15.48,0,0,0-2.5,1.35c-.87.56-1.74,1.2-2.64,1.91s-1.77,1.45-2.64,2.22c-.44.38-.86.73-1.26,1a5.29,5.29,0,0,1-1.21.71,13.5,13.5,0,0,0-.89,1.82c-.31.75-.62,1.58-.92,2.47s-.59,1.81-.86,2.75-.5,1.8-.68,2.61q-.15.63-.24,1.23c-.06.4-.13.83-.21,1.28s-.18.94-.29,1.47-.24,1.1-.4,1.74a1.94,1.94,0,0,1-.49.92,2.37,2.37,0,0,1-.69.53,2.24,2.24,0,0,1-.69.23,4,4,0,0,1-.52,0,3.07,3.07,0,0,1-1.87-.54,2.51,2.51,0,0,1-.72-2.11c0-.28,0-.58,0-.89a5.54,5.54,0,0,1,.18-1q.66-2.86,1.28-5.16c.42-1.52.83-2.94,1.26-4.25s.84-2.54,1.28-3.69.87-2.32,1.32-3.5l1.42-3.65c.49-1.25,1-2.65,1.58-4.17a1.61,1.61,0,0,1,.95-.86,4,4,0,0,1,1.65-.35,3.23,3.23,0,0,1,1.88.51,1.7,1.7,0,0,1,.74,1.48,1.65,1.65,0,0,1-.06.33,3.14,3.14,0,0,1-.18.51l-1.33,3.14c.85-.66,1.73-1.33,2.64-2a28.37,28.37,0,0,1,2.82-1.79,17.69,17.69,0,0,1,2.91-1.3,9,9,0,0,1,2.88-.5,6.29,6.29,0,0,1,4.52,1.55,6.36,6.36,0,0,1,1.63,4.81,16.13,16.13,0,0,1-.65,4.26c-.43,1.58-1,3.29-1.62,5.11s-1.36,3.73-2.12,5.73-1.45,4-2.09,6.1a9.77,9.77,0,0,1-.56,1.42,3,3,0,0,1-.68.92,2.35,2.35,0,0,1-.92.5,4.73,4.73,0,0,1-1.28.15,2.36,2.36,0,0,1-1.63-.44,1.88,1.88,0,0,1-.45-1.4,10.48,10.48,0,0,1,.26-2.07,27.34,27.34,0,0,1,.72-2.68c.31-1,.67-2,1.09-3.12s.86-2.23,1.34-3.38c.38-.92.76-1.85,1.13-2.77s.7-1.82,1-2.69a23.61,23.61,0,0,0,.71-2.47,9.74,9.74,0,0,0,.27-2.17,3.24,3.24,0,0,0-.4-1.64,1.59,1.59,0,0,0-1.53-.71" transform="translate(0 0)"/><path class="cls-3" d="M436,229.42c.3-1.17.67-2.53,1.09-4.07l1.34-4.92q.71-2.6,1.43-5.31t1.36-5.27a1.73,1.73,0,0,1,.21-.41,2.62,2.62,0,0,1,.51-.57,2.89,2.89,0,0,1,.85-.5,3.14,3.14,0,0,1,1.2-.21,4.65,4.65,0,0,1,1,.1,3.13,3.13,0,0,1,.86.32,1.7,1.7,0,0,1,.6.56,1.44,1.44,0,0,1,.23.8v.19a.64.64,0,0,1,0,.2l-.85,3.19q-1.41,5.37-2.88,10.77t-2.85,10.82a4.24,4.24,0,0,1-.18.46,2.61,2.61,0,0,1-.33.54,1.84,1.84,0,0,1-.51.45,1.37,1.37,0,0,1-.72.18,2.94,2.94,0,0,1-1.39-.31,3.56,3.56,0,0,1-1-.8,3.38,3.38,0,0,1-.63-1.06,3.13,3.13,0,0,1-.21-1.08v-.27a.79.79,0,0,1,.06-.28Zm7.87-31.21a8.59,8.59,0,0,1,.55-1.54,4,4,0,0,1,1.38-1.63,6.64,6.64,0,0,1,1.18-.5,3.66,3.66,0,0,1,1-.22,1.1,1.1,0,0,1,.62.21,3.67,3.67,0,0,1,.56.45,6.15,6.15,0,0,1,.57.66,1.07,1.07,0,0,1,1,.55,2.66,2.66,0,0,1,.23,1.14,4,4,0,0,1-.09.88l-.15.63A2.67,2.67,0,0,1,450,200a5.55,5.55,0,0,1-1.17.91,6.49,6.49,0,0,1-1.39.58,4.59,4.59,0,0,1-1.26.21,2,2,0,0,1-1.08-.24,4.39,4.39,0,0,1-.95-1,1.92,1.92,0,0,1-.37-.71,2.69,2.69,0,0,1-.05-.44,3.51,3.51,0,0,1,.05-.59c0-.17.06-.33.1-.49" transform="translate(0 0)"/><path class="cls-3" d="M455.93,225.56a25.8,25.8,0,0,1,.57-5.27q.58-2.73,1.21-5.23a7.66,7.66,0,0,1-1.6-.24,6.42,6.42,0,0,1-1.47-.57,3.46,3.46,0,0,1-1.09-.89,1.9,1.9,0,0,1-.42-1.22,2.76,2.76,0,0,1,.12-.7,4.15,4.15,0,0,1,.34-.83,2.3,2.3,0,0,1,.59-.69,1.28,1.28,0,0,1,.82-.29h4a.77.77,0,0,0,.78-.49,6.65,6.65,0,0,0,.33-1c.26-1.17.51-2.18.74-3s.43-1.58.59-2.17.29-1.08.38-1.45a3.94,3.94,0,0,0,.13-.89c0-.26,0-.51,0-.76s0-.57,0-1v-.3a6.33,6.33,0,0,1,.05-.64,5.91,5.91,0,0,1,.28-1.11,3,3,0,0,1,.67-1.09,1.85,1.85,0,0,1,1.42-.51,2.71,2.71,0,0,1,1.38.33,2.83,2.83,0,0,1,.94.88,4,4,0,0,1,.54,1.23,5.58,5.58,0,0,1,.18,1.39,5.66,5.66,0,0,1-.15,1.36l-2.2,8.44c1.08-.18,2-.35,2.89-.51l2.54-.48c.92-.19,1.72-.36,2.39-.52l1.74-.4,1.22-.28a4.1,4.1,0,0,1,.83-.1,6.55,6.55,0,0,1,1,.07,3.06,3.06,0,0,1,.87.26,1.62,1.62,0,0,1,.62.51,1.48,1.48,0,0,1,.24.88,2.77,2.77,0,0,1-.28,1.28,3.52,3.52,0,0,1-.74,1,3.73,3.73,0,0,1-1,.67,5.61,5.61,0,0,1-1.14.37c-.33.06-.74.16-1.26.28l-1.68.39-1.92.45-1.93.48-2.37.61c-.65.16-1.21.28-1.67.36l-1.13.18a5.46,5.46,0,0,1-.71.06c-.38,1.14-.71,2.27-1,3.38s-.52,2.13-.71,3.09-.34,1.81-.43,2.56a15.55,15.55,0,0,0-.13,1.76,7.86,7.86,0,0,0,.15,1.56,3.58,3.58,0,0,0,.51,1.28,2.56,2.56,0,0,0,1,.86,3.4,3.4,0,0,0,1.55.31,6.29,6.29,0,0,0,3.14-.87,14.38,14.38,0,0,0,2.94-2.22,25.86,25.86,0,0,0,2.65-2.94c.84-1.06,1.61-2.08,2.31-3a1.09,1.09,0,0,1,.94-.55,1.52,1.52,0,0,1,.43.07,1.67,1.67,0,0,1,.5.21,1.38,1.38,0,0,1,.41.39,1,1,0,0,1,.16.57,1.6,1.6,0,0,1,0,.36,16.52,16.52,0,0,1-1.49,3.76c-.67,1.25-1.36,2.51-2.06,3.78a6.94,6.94,0,0,1-.95,1.3,15,15,0,0,1-1.29,1.22c-.46.39-.94.76-1.44,1.12s-1,.66-1.42.94a7.18,7.18,0,0,1-2.5,1,13.5,13.5,0,0,1-2.63.27,8.08,8.08,0,0,1-3.48-.71,7.34,7.34,0,0,1-2.56-1.93,8.44,8.44,0,0,1-1.59-2.85,11,11,0,0,1-.54-3.49" transform="translate(0 0)"/><path class="cls-3" d="M498.9,233.64a12.68,12.68,0,0,1,.21-2.1,18.24,18.24,0,0,0,.21-3c-.66.48-1.39,1.06-2.2,1.72s-1.64,1.3-2.5,1.9a19.48,19.48,0,0,1-2.58,1.52,5.56,5.56,0,0,1-2.4.62,5.48,5.48,0,0,1-1.72-.27,4.31,4.31,0,0,1-1.38-.73,8.72,8.72,0,0,1-2.31-2.53,6,6,0,0,1-.71-3,9.53,9.53,0,0,1,.14-1.57c.09-.54.22-1.17.4-1.87a26.34,26.34,0,0,1,3.94-8.82,27.1,27.1,0,0,1,6.92-6.92,8.54,8.54,0,0,1,3.2-1.43,16.29,16.29,0,0,1,3.16-.32,15.32,15.32,0,0,1,1.56.09l1.55.18c.46-.1.84-.17,1.13-.21a6.77,6.77,0,0,1,.92-.06,4.12,4.12,0,0,1,1.51.24,2.46,2.46,0,0,1,1.49,1.58,3.72,3.72,0,0,1,.17,1.1,4.63,4.63,0,0,1-.25,1.5l-.48,1.43-4,15.89c-.08.87-.15,1.66-.21,2.38a10.23,10.23,0,0,1-.36,2l-.23.68a2.68,2.68,0,0,1-.43.79,3,3,0,0,1-.76.64,2.17,2.17,0,0,1-1.18.28,7.37,7.37,0,0,1-1.49-.12,2.4,2.4,0,0,1-.86-.35,1,1,0,0,1-.39-.54,2.78,2.78,0,0,1-.09-.74m-10-9.11a11.69,11.69,0,0,0-.26,1.21,9.12,9.12,0,0,0-.13,1.56,4.24,4.24,0,0,0,.24,1.47,1,1,0,0,0,1.05.64,5.16,5.16,0,0,0,2.37-.55,11.49,11.49,0,0,0,2.07-1.35c.86-.7,1.74-1.49,2.64-2.36s1.73-1.8,2.53-2.76a26.07,26.07,0,0,0,2.11-3,12.5,12.5,0,0,0,1.34-3,16.65,16.65,0,0,0,.41-2,14.57,14.57,0,0,0,.16-2.05,1.77,1.77,0,0,0-.18-.77.69.69,0,0,0-.69-.38,8.24,8.24,0,0,0-3,.57,13.82,13.82,0,0,0-2.88,1.54,17,17,0,0,0-2.64,2.28,23.61,23.61,0,0,0-2.28,2.8,21.58,21.58,0,0,0-1.76,3.08,18.17,18.17,0,0,0-1.13,3.09" transform="translate(0 0)"/><path class="cls-3" d="M56.9,262.91l-5,.89a3.57,3.57,0,0,0-1.14-2.24,3.48,3.48,0,0,0-2.32-.75,3.77,3.77,0,0,0-3,1.31c-.76.87-1.13,2.33-1.13,4.38q0,3.42,1.14,4.83a3.77,3.77,0,0,0,3.07,1.4,3.39,3.39,0,0,0,2.36-.82,5,5,0,0,0,1.29-2.83l5,.85a8.87,8.87,0,0,1-3,5.19,9.16,9.16,0,0,1-5.89,1.75,8.74,8.74,0,0,1-6.69-2.66,10.33,10.33,0,0,1-2.5-7.35c0-3.16.84-5.63,2.51-7.39a8.85,8.85,0,0,1,6.77-2.65,9.21,9.21,0,0,1,5.56,1.51,8.34,8.34,0,0,1,3,4.58" transform="translate(0 0)"/><path class="cls-3" d="M84.05,266.58a10.39,10.39,0,0,1,1.24-4.9,8.54,8.54,0,0,1,3.53-3.61,10.43,10.43,0,0,1,5.09-1.25,9.58,9.58,0,0,1,7.12,2.83,9.76,9.76,0,0,1,2.77,7.14A9.9,9.9,0,0,1,101,274a9.46,9.46,0,0,1-7.06,2.86,11.2,11.2,0,0,1-5-1.19,8.19,8.19,0,0,1-3.63-3.5,11.62,11.62,0,0,1-1.24-5.6m5.21.27a6.37,6.37,0,0,0,1.35,4.37,4.42,4.42,0,0,0,6.65,0,6.48,6.48,0,0,0,1.34-4.41,6.34,6.34,0,0,0-1.34-4.33,4.4,4.4,0,0,0-6.65,0,6.35,6.35,0,0,0-1.35,4.37" transform="translate(0 0)"/><path class="cls-3" d="M149.69,276.39h-5.05v-9.76a14.8,14.8,0,0,0-.33-4,2.8,2.8,0,0,0-1.07-1.42,3.1,3.1,0,0,0-1.77-.5,4.12,4.12,0,0,0-2.38.72,3.66,3.66,0,0,0-1.45,1.91,16.37,16.37,0,0,0-.39,4.39v8.67h-5.06V257.23h4.69V260a7.76,7.76,0,0,1,6.34-3.22,7.61,7.61,0,0,1,3.09.61,5.11,5.11,0,0,1,2.11,1.54,5.51,5.51,0,0,1,1,2.12,15.64,15.64,0,0,1,.28,3.41Z" transform="translate(0 0)"/><path class="cls-3" d="M196.88,276.39h-4.69v-2.81a7.89,7.89,0,0,1-2.78,2.46,7,7,0,0,1-3.22.83,7.32,7.32,0,0,1-5.67-2.66q-2.36-2.67-2.36-7.44t2.29-7.41a7.5,7.5,0,0,1,5.8-2.54,7.2,7.2,0,0,1,5.57,2.67V250h5.06Zm-13.52-9.95a8.88,8.88,0,0,0,.85,4.45,3.81,3.81,0,0,0,3.42,2,3.71,3.71,0,0,0,3-1.49,7,7,0,0,0,1.22-4.46c0-2.21-.4-3.8-1.19-4.77a3.88,3.88,0,0,0-6,0,6.53,6.53,0,0,0-1.22,4.3" transform="translate(0 0)"/><path class="cls-3" d="M225.16,266.58a10.39,10.39,0,0,1,1.24-4.9,8.52,8.52,0,0,1,3.52-3.61,10.47,10.47,0,0,1,5.1-1.25,9.55,9.55,0,0,1,7.11,2.83,9.76,9.76,0,0,1,2.78,7.14,9.9,9.9,0,0,1-2.8,7.22,9.46,9.46,0,0,1-7.06,2.86,11.16,11.16,0,0,1-5-1.19,8.19,8.19,0,0,1-3.63-3.5,11.62,11.62,0,0,1-1.24-5.6m5.2.27a6.37,6.37,0,0,0,1.35,4.37,4.42,4.42,0,0,0,6.65,0,6.43,6.43,0,0,0,1.34-4.41,6.29,6.29,0,0,0-1.34-4.33,4.4,4.4,0,0,0-6.65,0,6.35,6.35,0,0,0-1.35,4.37" transform="translate(0 0)"/><path class="cls-3" d="M273,257.23h4.65v2.61a7.54,7.54,0,0,1,6-3,6.46,6.46,0,0,1,3.19.76,5.9,5.9,0,0,1,2.22,2.29,8.85,8.85,0,0,1,2.72-2.29,6.72,6.72,0,0,1,3.12-.76,7,7,0,0,1,3.57.86,5.27,5.27,0,0,1,2.18,2.51,11.14,11.14,0,0,1,.52,4v12.23h-5.06V265.46a8.13,8.13,0,0,0-.52-3.68,2.41,2.41,0,0,0-2.17-1.08,3.46,3.46,0,0,0-2,.65,3.5,3.5,0,0,0-1.35,1.9,13.45,13.45,0,0,0-.42,3.95v9.19h-5.06V265.91a14.58,14.58,0,0,0-.27-3.61,2.3,2.3,0,0,0-.83-1.2,2.63,2.63,0,0,0-1.54-.4,3.69,3.69,0,0,0-2.11.63,3.49,3.49,0,0,0-1.34,1.82,13.47,13.47,0,0,0-.41,3.94v9.3H273Z" transform="translate(0 0)"/><path class="cls-3" d="M330.65,250h5.06v4.69h-5.06Zm0,7.27h5.06v19.16h-5.06Z" transform="translate(0 0)"/><path class="cls-3" d="M382.78,276.39h-5.06v-9.76a14.8,14.8,0,0,0-.33-4,2.84,2.84,0,0,0-1.06-1.42,3.11,3.11,0,0,0-1.78-.5,4.15,4.15,0,0,0-2.38.72,3.65,3.65,0,0,0-1.44,1.91,16.37,16.37,0,0,0-.39,4.39v8.67h-5.06V257.23H370V260a7.75,7.75,0,0,1,6.34-3.22,7.56,7.56,0,0,1,3.08.61A5.11,5.11,0,0,1,381.5,259a5.53,5.53,0,0,1,1,2.12,16.3,16.3,0,0,1,.28,3.41Z" transform="translate(0 0)"/><path class="cls-3" d="M412.39,250h5.06v4.69h-5.06Zm0,7.27h5.06v19.16h-5.06Z" transform="translate(0 0)"/><path class="cls-3" d="M445.91,266.58a10.39,10.39,0,0,1,1.24-4.9,8.54,8.54,0,0,1,3.53-3.61,10.43,10.43,0,0,1,5.09-1.25,9.58,9.58,0,0,1,7.12,2.83,9.76,9.76,0,0,1,2.77,7.14,9.9,9.9,0,0,1-2.8,7.22,9.46,9.46,0,0,1-7.06,2.86,11.2,11.2,0,0,1-5-1.19,8.19,8.19,0,0,1-3.63-3.5,11.62,11.62,0,0,1-1.24-5.6m5.2.27a6.37,6.37,0,0,0,1.35,4.37,4.42,4.42,0,0,0,6.65,0,6.43,6.43,0,0,0,1.34-4.41,6.29,6.29,0,0,0-1.34-4.33,4.4,4.4,0,0,0-6.65,0,6.35,6.35,0,0,0-1.35,4.37" transform="translate(0 0)"/><path class="cls-4" d="M162.73,92a92,92,0,1,1,92,92,92,92,0,0,1-92-92" transform="translate(0 0)"/><circle class="cls-5" cx="254.73" cy="92" r="83.24" transform="translate(160.86 346.05) rotate(-89.58)"/><circle class="cls-5" cx="254.73" cy="92" r="76.32"/><path class="cls-5" d="M282.11,87.29a2.26,2.26,0,0,1-.79,1.37c-1,.91-2.37.54-3.52-.21-1.86-1.22-1.51-3.78-.37-5.68,1.59-2.64,5.18-2.5,7.83-.94,3.4,2,3.51,6.58,1.52,10-2.42,4.15-8,4.51-12.14,2.1-4.9-2.85-5.52-9.39-2.67-14.3,3.27-5.65,10.79-6.52,16.45-3.25,6.41,3.71,7.54,12.19,3.83,18.61-4.15,7.16-13.6,8.55-20.76,4.4-7.92-4.57-9.56-15-5-22.91,5-8.67,16.4-10.57,25.07-5.56,9.42,5.44,11.59,17.8,6.14,27.22-5.88,10.18-19.2,12.6-29.38,6.72C257.4,98.52,254.71,84.23,261,73.31a23.69,23.69,0,0,1,32.32-8.66" transform="translate(0 0)"/><path class="cls-5" d="M235.84,161.75s20.58-13.54,13.25-55.75l15.52,0s-9.62,44.53,9.61,55.81Z" transform="translate(0 0)"/><path class="cls-5" d="M254.33,41.82a2.18,2.18,0,0,1,1.53.38c1.16.74,1.18,2.13.77,3.44-.65,2.12-3.21,2.49-5.35,1.92-3-.8-3.84-4.29-3.07-7.27,1-3.81,5.36-5.18,9.18-4.21,4.66,1.18,6.54,6.43,5.36,11.09-1.38,5.5-7.5,7.89-13,6.51-6.34-1.59-9.25-8.57-7.66-14.91,1.8-7.19,9.64-10.61,16.83-8.81,8,2,12,10.71,9.95,18.74C266.66,57.57,257.1,62,248.22,59.8,238.51,57.38,233.54,47,236,37.24c2.63-10.56,13.91-16,24.47-13.41,11.41,2.85,17.4,15,14.56,26.39C271.94,62.47,258.94,69,246.7,65.93a23.71,23.71,0,0,1-17.24-28.69" transform="translate(0 0)"/><path class="cls-5" d="M227.43,86.78a2.23,2.23,0,0,1,.43-1.52c.78-1.13,2.17-1.1,3.47-.65,2.1.73,2.38,3.3,1.73,5.42-.9,2.94-4.42,3.68-7.37,2.81-3.78-1.11-5-5.54-3.89-9.32,1.34-4.61,6.66-6.31,11.27-5,5.45,1.58,7.63,7.77,6.06,13.22-1.82,6.29-8.9,9-15.18,7.14-7.12-2-10.26-10-8.22-17.13,2.29-8,11.13-11.58,19.08-9.3,8.79,2.53,12.9,12.24,10.38,21-2.76,9.63-13.35,14.23-23,11.46-10.46-3-15.54-14.46-12.54-24.93,3.24-11.29,15.58-16.86,26.88-13.62,12.13,3.48,18.2,16.7,14.71,28.83A23.7,23.7,0,0,1,222,111.47" transform="translate(0 0)"/><line class="cls-6" x1="344.23" y1="165.23" x2="510.09" y2="165.23"/><line class="cls-6" x1="1.88" y1="164.6" x2="162.73" y2="164.6"/><line class="cls-6" x1="2.5" y1="299.79" x2="510.72" y2="299.79"/><path class="cls-7" d="M0,264.74A11.27,11.27,0,1,1,11.27,276,11.26,11.26,0,0,1,0,264.74" transform="translate(0 0)"/><path class="cls-7" d="M482.75,264.18A11.27,11.27,0,1,1,494,275.45a11.27,11.27,0,0,1-11.26-11.27" transform="translate(0 0)"/></g></svg>