<svg id="Capa_1" data-name="Capa 1" xmlns="http://www.w3.org/2000/svg" xmlns:xlink="http://www.w3.org/1999/xlink" viewBox="0 0 143.5 51.31"><defs><style>.cls-1,.cls-5{fill:none;}.cls-2{clip-path:url(#clip-path);}.cls-3{fill:#1c0555;}.cls-3,.cls-4,.cls-6,.cls-7,.cls-8{fill-rule:evenodd;}.cls-4{fill:#006240;}.cls-5{stroke:#fdd24b;stroke-miterlimit:3.86;stroke-width:2.16px;}.cls-6{fill:#231f20;}.cls-7{fill:#557f43;}.cls-8{fill:#fdd24b;}</style><clipPath id="clip-path" transform="translate(0 0)"><rect class="cls-1" width="143.51" height="51.31"/></clipPath></defs><g class="cls-2"><path class="cls-3" d="M62.64,18.37,59.7,4.54l-.24-1.1a2.43,2.43,0,0,0-.22-1,3.7,3.7,0,0,0-1.14-.15h-.2l.2-1.06L62.78.76l2.61,13.61,5.92-9.75,2.07-3.38H75s-1.5,2.12-2.24,3.34L64.33,18.37Z" transform="translate(0 0)"/><path class="cls-3" d="M86.11,18.21H76.75l.15-.76h.15c.59,0,.94-.12,1-.25a4.32,4.32,0,0,0,.45-1.38L80,8.4l.19-1.06c0-.32-.35-.15-1-.21H79l.15-.76,4-.44s-.46,1.69-.64,2.48l-1.48,7.42A6.09,6.09,0,0,0,81,17a.32.32,0,0,0,.26.33,7,7,0,0,0,1.2.06h1a11.33,11.33,0,0,0,1.2-.06c.28,0,1.16-1.91,1.16-1.91h.87Z" transform="translate(0 0)"/><path class="cls-3" d="M95.81,18.36H86.45l.15-.76h.15a1.84,1.84,0,0,0,1-.24A4.32,4.32,0,0,0,88.25,16l1.47-7.42.19-1.06c0-.32-.35-.15-1-.21h-.15l.15-.76,4-.44s-.46,1.68-.64,2.48L90.79,16a5.92,5.92,0,0,0-.13,1.14.32.32,0,0,0,.26.33,7,7,0,0,0,1.2.06h1a11.33,11.33,0,0,0,1.2-.06c.28,0,1.16-1.91,1.16-1.91h.87Z" transform="translate(0 0)"/><path class="cls-3" d="M72.14,18.32c.11-.13,2.11-9.82,2.11-9.82l.19-1c0-.32-.35-.16-1-.21h-.15l.15-.76,4-.44S77,7.71,76.8,8.5l-1.48,7.43c-.09.45-.37,1.95-.54,2.39a14.55,14.55,0,0,1-2.64,0" transform="translate(0 0)"/><path class="cls-3" d="M98.79,14.45,98,15.79c-.49.78-1.38,2.53-1.38,2.53H95.44s.76-1.27.94-1.6c.05-.1.24-.41.56-.93l5.83-9.49V5.66l1.52.2,2.24,10c.19.77.72,2.48.72,2.48s-2.85.05-2.72,0a16,16,0,0,0-.53-2.51l-.31-1.36Zm.49-.81h4.24l-1.13-5Z" transform="translate(0 0)"/><path class="cls-4" d="M60.46,29.91a10.94,10.94,0,0,1,4-6.79,11.57,11.57,0,0,1,7.64-2.37c2.9.05,5,.92,6.39,2.59S80.24,27.23,79.7,30a11.07,11.07,0,0,1-11.53,9.28q-4.38-.09-6.46-2.62c-1.38-1.68-1.8-3.93-1.25-6.73m4.9,0c-.73,3.71.5,5.59,3.68,5.66s5-1.81,5.72-5.61-.46-5.54-3.54-5.6a5.15,5.15,0,0,0-3.8,1.43,7.58,7.58,0,0,0-2.06,4.12" transform="translate(0 0)"/><path class="cls-4" d="M98.79,39.41,94,39.32l1.94-9.9c.6-3-.24-4.56-2.49-4.6a4.18,4.18,0,0,0-3,1.18,5.62,5.62,0,0,0-1.68,3.11l-2,10.07-4.84-.1,3-15.34-1.14-.1.27-1.35L90.22,21l-.56,3.38h0a8,8,0,0,1,6.56-3.14q6.08.11,4.64,7.39Z" transform="translate(0 0)"/><polygon class="cls-4" points="103.44 39.5 106.36 23.52 105.34 23.24 105.34 22.02 111.73 21.4 108.26 39.6 103.44 39.5"/><path class="cls-4" d="M107.66,16a2.89,2.89,0,0,1,1.14-1.78,3.4,3.4,0,0,1,2.19-.68,2.47,2.47,0,0,1,1.88.75,2,2,0,0,1,.47,1.82,2.88,2.88,0,0,1-1.17,1.8,3.48,3.48,0,0,1-2.18.69,2.43,2.43,0,0,1-1.88-.78,2,2,0,0,1-.45-1.82" transform="translate(0 0)"/><path class="cls-4" d="M46.82,17.27l-1.27,6.49,2.69,0a5.53,5.53,0,0,0,3.3-.86,3.88,3.88,0,0,0,1.64-2.55c.39-2-.89-3-3.82-3.08Zm-9.07,21L42,15.42l-1.38-.14.27-1.48,10.37-.14q3.95.08,5.86,1.64a4.1,4.1,0,0,1,1.39,4.29,6.37,6.37,0,0,1-2,3.48,8.89,8.89,0,0,1-3.93,2.1,6,6,0,0,1,3.91,2.09,4.75,4.75,0,0,1,.81,4,8,8,0,0,1-3.5,5.26,11.67,11.67,0,0,1-7,1.85Zm7.07-10.78-1.41,7.19,3.4.07a6.11,6.11,0,0,0,3.6-.91,4,4,0,0,0,1.74-2.68q.69-3.51-4.1-3.61Z" transform="translate(0 0)"/><path class="cls-4" d="M124.61,38.47c-.9.38-3.11,1.8-4.58,1.78q-5.61-.12-4.48-5.86l1.72-8.77-3-.06L115,22l3,.06.78-3.95,5.09-1.27-1,5.31,4.22.08-.7,3.57-4.21-.09-1.56,7.95c-.39,2,.22,2.94,1.8,3a6.24,6.24,0,0,0,2.54-.46Z" transform="translate(0 0)"/><path class="cls-4" d="M130.2,23.43a13.47,13.47,0,0,1,3.41-1.06,17.79,17.79,0,0,1,3.61-.36q7.4.15,6,7.4l-2.12,10.82-4.62-.09.51-2.6a7.57,7.57,0,0,1-6.15,2.93,5,5,0,0,1-3.9-1.51,4.41,4.41,0,0,1-.79-3.89q1-5.05,7.37-5.74l5.21-.58c.44-2.25.34-4.44-2.76-4.44a13.58,13.58,0,0,0-5.94,1ZM134.42,32q-3.19.33-3.65,2.64a1.86,1.86,0,0,0,.41,1.72,2.55,2.55,0,0,0,1.89.69,4.48,4.48,0,0,0,3.09-1.13,5,5,0,0,0,1.71-3l.27-1.34Z" transform="translate(0 0)"/><line class="cls-5" x1="37.84" y1="41.91" x2="143.5" y2="41.91"/><polygon class="cls-6" points="38.62 51.22 38.62 45.99 39.51 45.99 39.51 50.33 41.73 50.33 41.73 51.22 38.62 51.22"/><path class="cls-6" d="M46.56,51.22h-1L45.21,50H43.44l-.37,1.19h-1L43.84,46h.95Zm-1.64-2.09-.61-2-.6,2Z" transform="translate(0 0)"/><path class="cls-6" d="M51.78,49.27l.87.33A2.4,2.4,0,0,1,52,50.9a1.84,1.84,0,0,1-2.56-.24,3.11,3.11,0,0,1-.62-2,3.27,3.27,0,0,1,.62-2.11,1.79,1.79,0,0,1,1.46-.66,1.69,1.69,0,0,1,1.24.49,2.16,2.16,0,0,1,.52,1l-.88.25a1.1,1.1,0,0,0-.34-.65.84.84,0,0,0-.59-.23,1,1,0,0,0-.8.42,2.29,2.29,0,0,0-.31,1.37A2.5,2.5,0,0,0,50,50a.92.92,0,0,0,.78.42.83.83,0,0,0,.61-.26,1.68,1.68,0,0,0,.37-.86" transform="translate(0 0)"/><path class="cls-6" d="M53.44,48.61a3.7,3.7,0,0,1,.28-1.55,2.06,2.06,0,0,1,.75-.9,2.12,2.12,0,0,1,2.66.4,3.73,3.73,0,0,1,0,4.09,1.86,1.86,0,0,1-1.51.66,1.89,1.89,0,0,1-1.51-.65,3.08,3.08,0,0,1-.63-2m.92,0a2.17,2.17,0,0,0,.35,1.36,1.07,1.07,0,0,0,.88.45,1.05,1.05,0,0,0,.87-.45,2.26,2.26,0,0,0,.34-1.38,2.24,2.24,0,0,0-.33-1.35,1.11,1.11,0,0,0-1.77,0,2.23,2.23,0,0,0-.34,1.37" transform="translate(0 0)"/><polygon class="cls-6" points="58.64 51.22 58.64 45.95 59.51 45.95 61.33 49.47 61.33 45.95 62.16 45.95 62.16 51.22 61.26 51.22 59.47 47.78 59.47 51.22 58.64 51.22"/><path class="cls-6" d="M63.06,49.5l.87-.1c.1.67.42,1,1,1a.9.9,0,0,0,.64-.21.64.64,0,0,0,.24-.51.49.49,0,0,0-.09-.3.5.5,0,0,0-.24-.21q-.16-.07-.81-.27a2.61,2.61,0,0,1-.83-.37,1.28,1.28,0,0,1-.42-.52,1.46,1.46,0,0,1-.16-.69,1.56,1.56,0,0,1,.2-.78A1.28,1.28,0,0,1,64,46a2,2,0,0,1,.87-.17,1.73,1.73,0,0,1,1.22.41,1.62,1.62,0,0,1,.46,1.19l-.89,0a.93.93,0,0,0-.26-.59.83.83,0,0,0-.56-.17.88.88,0,0,0-.55.15.42.42,0,0,0-.2.36.45.45,0,0,0,.18.36,2.59,2.59,0,0,0,.82.32,3.54,3.54,0,0,1,1,.41,1.42,1.42,0,0,1,.46.54,2,2,0,0,1,.15.81,1.63,1.63,0,0,1-.43,1.15,1.77,1.77,0,0,1-1.35.47c-1.08,0-1.69-.6-1.81-1.81" transform="translate(0 0)"/><polygon class="cls-6" points="68.6 51.22 68.6 46.84 67.29 46.84 67.29 45.95 70.8 45.95 70.8 46.84 69.49 46.84 69.49 51.22 68.6 51.22"/><path class="cls-6" d="M71.58,51.22V46h1.88a2.6,2.6,0,0,1,1,.14,1.19,1.19,0,0,1,.51.49,1.68,1.68,0,0,1,.19.84,1.57,1.57,0,0,1-.3,1,1.33,1.33,0,0,1-.86.47,2.22,2.22,0,0,1,.47.44,6.2,6.2,0,0,1,.52.86l.54,1H74.49l-.65-1.15c-.23-.41-.39-.67-.47-.78a.83.83,0,0,0-.27-.21,1.21,1.21,0,0,0-.45-.06h-.18v2.2Zm.89-3h.66a3.69,3.69,0,0,0,.77,0,.52.52,0,0,0,.27-.22.72.72,0,0,0,.11-.42.68.68,0,0,0-.11-.4.49.49,0,0,0-.28-.21,3.25,3.25,0,0,0-.72,0h-.7Z" transform="translate(0 0)"/><path class="cls-6" d="M76.23,46h.89V48.8a7.78,7.78,0,0,0,0,.87.83.83,0,0,0,.28.53,1,1,0,0,0,1.1.06.68.68,0,0,0,.27-.37,4.48,4.48,0,0,0,.07-1V46h.89v2.76a7.88,7.88,0,0,1-.11,1.54,1.32,1.32,0,0,1-.53.76,1.76,1.76,0,0,1-1.07.3A2.06,2.06,0,0,1,77,51.07a1.44,1.44,0,0,1-.57-.69,5.23,5.23,0,0,1-.17-1.62Z" transform="translate(0 0)"/><path class="cls-6" d="M83.72,49.27l.87.33a2.4,2.4,0,0,1-.68,1.3,1.71,1.71,0,0,1-1.16.41,1.75,1.75,0,0,1-1.4-.65,3.11,3.11,0,0,1-.61-2,3.22,3.22,0,0,1,.62-2.11,1.77,1.77,0,0,1,1.45-.66,1.71,1.71,0,0,1,1.25.49,2.25,2.25,0,0,1,.52,1l-.88.25a1.16,1.16,0,0,0-.34-.65.88.88,0,0,0-.6-.23,1,1,0,0,0-.8.42,2.37,2.37,0,0,0-.3,1.37A2.5,2.5,0,0,0,82,50a.92.92,0,0,0,.78.42.85.85,0,0,0,.61-.26,1.77,1.77,0,0,0,.37-.86" transform="translate(0 0)"/><polygon class="cls-6" points="86.55 51.22 86.55 46.84 85.24 46.84 85.24 45.95 88.75 45.95 88.75 46.84 87.44 46.84 87.44 51.22 86.55 51.22"/><path class="cls-6" d="M89.25,48.61a3.7,3.7,0,0,1,.29-1.55,2,2,0,0,1,.74-.9,2,2,0,0,1,1.11-.3,1.93,1.93,0,0,1,1.55.7,3.68,3.68,0,0,1,0,4.09,1.86,1.86,0,0,1-1.5.66,1.91,1.91,0,0,1-1.52-.65,3.08,3.08,0,0,1-.63-2m.92,0a2.23,2.23,0,0,0,.35,1.36,1.09,1.09,0,0,0,.88.45,1.05,1.05,0,0,0,.87-.45,2.26,2.26,0,0,0,.35-1.38,2.16,2.16,0,0,0-.34-1.35,1.06,1.06,0,0,0-.88-.44,1.09,1.09,0,0,0-.89.44,2.23,2.23,0,0,0-.34,1.37" transform="translate(0 0)"/><path class="cls-6" d="M94.44,51.22V46h1.88a2.56,2.56,0,0,1,1,.14,1.09,1.09,0,0,1,.51.49,1.68,1.68,0,0,1,.2.84,1.51,1.51,0,0,1-.31,1,1.33,1.33,0,0,1-.86.47,2.56,2.56,0,0,1,.48.44,7.72,7.72,0,0,1,.51.86l.54,1H97.35l-.65-1.15c-.23-.41-.39-.67-.47-.78a.66.66,0,0,0-.27-.21,1.18,1.18,0,0,0-.44-.06h-.19v2.2Zm.89-3H96a3.82,3.82,0,0,0,.78,0,.52.52,0,0,0,.27-.22.73.73,0,0,0,.1-.42.68.68,0,0,0-.1-.4.53.53,0,0,0-.28-.21,3.43,3.43,0,0,0-.73,0h-.7Z" transform="translate(0 0)"/><path class="cls-6" d="M103.09,51.22h-1L101.74,50H100l-.36,1.19h-.95L100.37,46h.95Zm-1.64-2.09-.61-2-.6,2Z" transform="translate(0 0)"/><path class="cls-6" d="M105.48,46h1.63a2.48,2.48,0,0,1,.93.13,1.53,1.53,0,0,1,.58.46,2.23,2.23,0,0,1,.42.83,4.56,4.56,0,0,1,.15,1.27,4.23,4.23,0,0,1-.16,1.19,2.6,2.6,0,0,1-.4.8,1.61,1.61,0,0,1-.59.44,2.21,2.21,0,0,1-.88.15h-1.68Zm.89.89v3.49H107a1.88,1.88,0,0,0,.63-.08A.73.73,0,0,0,108,50a1.56,1.56,0,0,0,.21-.51,4.37,4.37,0,0,0,.08-.91,3.74,3.74,0,0,0-.09-.92,1.25,1.25,0,0,0-.25-.53.84.84,0,0,0-.43-.26,3.9,3.9,0,0,0-.73,0Z" transform="translate(0 0)"/><polygon class="cls-6" points="110.15 51.22 110.15 45.95 113.42 45.95 113.42 46.84 111.04 46.84 111.04 48 113.26 48 113.26 48.89 111.04 48.89 111.04 50.33 113.51 50.33 113.51 51.22 110.15 51.22"/><polygon class="cls-6" points="114.48 51.22 114.48 45.99 115.37 45.99 115.37 50.33 117.59 50.33 117.59 51.22 114.48 51.22"/><path class="cls-6" d="M120.26,46h.89V48.8a7.78,7.78,0,0,0,0,.87.83.83,0,0,0,.28.53,1,1,0,0,0,1.1.06.68.68,0,0,0,.27-.37,4.48,4.48,0,0,0,.07-1V46h.89v2.76a7,7,0,0,1-.12,1.54,1.26,1.26,0,0,1-.52.76,1.76,1.76,0,0,1-1.07.3,2.06,2.06,0,0,1-1.08-.24,1.44,1.44,0,0,1-.57-.69,5.23,5.23,0,0,1-.17-1.62Z" transform="translate(0 0)"/><path class="cls-6" d="M124.92,51.22V46h1.88a2.56,2.56,0,0,1,1,.14,1.09,1.09,0,0,1,.51.49,1.68,1.68,0,0,1,.2.84,1.57,1.57,0,0,1-.3,1,1.36,1.36,0,0,1-.87.47,2.56,2.56,0,0,1,.48.44,7.72,7.72,0,0,1,.51.86l.54,1h-1.07l-.65-1.15c-.23-.41-.39-.67-.47-.78a.66.66,0,0,0-.27-.21A1.18,1.18,0,0,0,126,49h-.19v2.2Zm.89-3h.66a3.82,3.82,0,0,0,.78,0,.52.52,0,0,0,.27-.22.73.73,0,0,0,.1-.42.68.68,0,0,0-.1-.4.53.53,0,0,0-.28-.21,3.43,3.43,0,0,0-.73,0h-.7Z" transform="translate(0 0)"/><path class="cls-6" d="M129.57,46h.89V48.8a5.41,5.41,0,0,0,0,.87.83.83,0,0,0,.28.53,1,1,0,0,0,1.1.06.68.68,0,0,0,.27-.37,5.17,5.17,0,0,0,.07-1V46h.89v2.76a7,7,0,0,1-.12,1.54,1.3,1.3,0,0,1-.52.76,1.77,1.77,0,0,1-1.08.3,2.06,2.06,0,0,1-1.08-.24,1.42,1.42,0,0,1-.56-.69,4.86,4.86,0,0,1-.18-1.62Z" transform="translate(0 0)"/><path class="cls-6" d="M134.24,46H136a2.68,2.68,0,0,1,1,.13,1,1,0,0,1,.5.45,1.36,1.36,0,0,1,.21.74,1.31,1.31,0,0,1-.18.69,1.05,1.05,0,0,1-.45.46,1.22,1.22,0,0,1,.62.47,1.47,1.47,0,0,1,.22.8,1.6,1.6,0,0,1-.29,1,1.19,1.19,0,0,1-.67.5,7.63,7.63,0,0,1-1.25.06h-1.5Zm.89.87V48h1.25a.63.63,0,0,0,.36-.19.6.6,0,0,0,.13-.42.63.63,0,0,0-.11-.38.4.4,0,0,0-.25-.18,4.71,4.71,0,0,0-.86,0Zm0,2.1v1.41H136a2.47,2.47,0,0,0,.7-.06.49.49,0,0,0,.26-.22.73.73,0,0,0,.11-.41.75.75,0,0,0-.12-.43.6.6,0,0,0-.29-.23,3.12,3.12,0,0,0-.77-.06Z" transform="translate(0 0)"/><path class="cls-6" d="M138.72,48.61a3.7,3.7,0,0,1,.28-1.55,2.06,2.06,0,0,1,.75-.9,2,2,0,0,1,1.11-.3,1.92,1.92,0,0,1,1.55.71,3.07,3.07,0,0,1,.59,2,3.12,3.12,0,0,1-.63,2.07,1.86,1.86,0,0,1-1.51.66,1.89,1.89,0,0,1-1.51-.65,3.08,3.08,0,0,1-.63-2m.92,0a2.17,2.17,0,0,0,.35,1.36,1.07,1.07,0,0,0,.88.45,1.05,1.05,0,0,0,.87-.45,2.26,2.26,0,0,0,.34-1.38,2.24,2.24,0,0,0-.33-1.35,1.11,1.11,0,0,0-1.77,0,2.23,2.23,0,0,0-.34,1.37m.74-3,.42-1.07h.95l-.83,1.07Z" transform="translate(0 0)"/><path class="cls-7" d="M23,22.07C22.67,10,23.32.14,24.49,0s2.4,9.52,2.76,21.56S27,43.49,25.8,43.63,23.4,34.12,23,22.07" transform="translate(0 0)"/><path class="cls-4" d="M31.63,29.87c3.13-2.73,6.09-4.52,6.62-4s-1.59,3.19-4.71,5.92-6.09,4.51-6.62,4,1.58-3.18,4.71-5.91" transform="translate(0 0)"/><path class="cls-8" d="M12.76,26.1C6,23.65.68,20.92,1,20s6,.32,12.8,2.77S25.83,28,25.56,28.87s-6-.32-12.8-2.77" transform="translate(0 0)"/><path class="cls-4" d="M0,7.86c0-.7,10.89-.88,24.27-.42S48.49,8.86,48.46,9.56s-10.89.88-24.27.41S0,8.56,0,7.86" transform="translate(0 0)"/></g></svg>